<?xml version="1.0" encoding="UTF-8" standalone="no"?>
<svg width="595" height="842" viewBox="0 0 595 842" fill="none" xmlns="http://www.w3.org/2000/svg" xmlns:dc="http://purl.org/dc/elements/1.1/" xmlns:cc="http://creativecommons.org/ns#" xmlns:rdf="http://www.w3.org/1999/02/22-rdf-syntax-ns#">
<metadata id="metadata5">
  <rdf:RDF>
     <cc:Work rdf:about="">
        <dc:format>image/svg+xml</dc:format>
          <dc:type rdf:resource="http://purl.org/dc/dcmitype/StillImage" />
          <dc:title>Public code codebase</dc:title>
          <cc:license rdf:resource="http://creativecommons.org/publicdomain/zero/1.0/" />
     </cc:Work>
     <cc:License rdf:about="http://creativecommons.org/publicdomain/zero/1.0/">
          <cc:permits rdf:resource="http://creativecommons.org/ns#Reproduction" />
          <cc:permits rdf:resource="http://creativecommons.org/ns#Distribution" />
          <cc:permits rdf:resource="http://creativecommons.org/ns#DerivativeWorks" />
     </cc:License>
  </rdf:RDF>
</metadata>
<g clip-path="url(#clip0)">
<rect width="595" height="842" fill="#00BA8D"/>
<path d="M275.383 549.165L275.383 602.307C275.383 608.457 272.553 614.265 267.71 618.056L233.53 644.809C228.299 648.903 225.243 655.177 225.243 661.82V661.82C225.243 667.785 220.407 672.621 214.442 672.621L-121 672.621" stroke="#FFF500" stroke-linecap="round" stroke-linejoin="round"/>
<path d="M280.755 549.165L280.755 603.744C280.755 609.061 278.638 614.16 274.871 617.913L247.245 645.433C243.478 649.186 241.36 654.285 241.36 659.602L241.36 844.321" stroke="#FFF500" stroke-linecap="round" stroke-linejoin="round"/>
<path d="M296.872 549.165L296.872 612.05L296.44 651.296L296.44 844.321" stroke="#FFF500" stroke-linecap="round" stroke-linejoin="round"/>
<path d="M291.5 549.165L291.5 608.832C291.5 610.964 291.159 613.082 290.49 615.106L279.542 648.24C278.874 650.264 278.533 652.382 278.533 654.514L278.533 844.321" stroke="#FFF500" stroke-linecap="round" stroke-linejoin="round"/>
<path d="M286.126 549.165L286.126 605.779C286.126 609.862 284.877 613.847 282.546 617.198L262.414 646.147C260.083 649.499 258.834 653.484 258.834 657.566L258.834 671.068C258.834 682.114 249.88 691.068 238.834 691.068L156.487 691.068C150.964 691.068 146.487 695.545 146.487 701.068L146.487 844.321" stroke="#FFF500" stroke-linecap="round" stroke-linejoin="round"/>
<path d="M179.125 691.068L85.1144 691.068C79.6284 691.068 75.1812 695.516 75.1812 701.002V701.002C75.1812 706.488 70.7339 710.935 65.2479 710.935L-18.8297 710.935C-24.3157 710.935 -28.7629 715.382 -28.7629 720.868V720.868" stroke="#FFF500" stroke-linecap="round" stroke-linejoin="round"/>
<path d="M325.523 549.165L325.523 602.307C325.523 608.457 328.352 614.265 333.195 618.056L367.989 645.29C372.832 649.081 375.662 654.889 375.662 661.039L375.662 844.324" stroke="#FFF500" stroke-linecap="round" stroke-linejoin="round"/>
<path d="M320.15 549.165L320.151 603.739C320.151 609.057 322.268 614.156 326.035 617.908L353.661 645.429C357.428 649.182 359.546 654.281 359.546 659.598L359.546 850" stroke="#FFF500" stroke-linecap="round" stroke-linejoin="round"/>
<path d="M304.034 549.165L304.467 844.321" stroke="#FFF500" stroke-linecap="round" stroke-linejoin="round"/>
<path d="M309.406 549.165L309.406 610.226C309.406 611.44 309.517 612.651 309.736 613.844L319.36 666.172C321.106 675.663 329.38 682.554 339.03 682.554L533.75 682.554C544.795 682.554 553.75 691.509 553.75 702.554L553.75 720.159L553.75 844.324" stroke="#FFF500" stroke-linecap="round" stroke-linejoin="round"/>
<path d="M314.779 549.165L314.779 605.78C314.779 609.862 316.028 613.847 318.359 617.198L336.103 642.714C339.842 648.09 345.975 651.296 352.523 651.296L723.324 651.296" stroke="#FFF500" stroke-linecap="round" stroke-linejoin="round"/>
<circle cx="121.655" cy="672.621" r="4.25709" fill="#FFF500"/>
<circle cx="476.412" cy="682.554" r="4.25709" fill="#FFF500"/>
<circle cx="571.488" cy="651.336" r="4.25709" fill="#FFF500"/>
<circle cx="279.167" cy="654.174" r="4.25709" fill="#FFF500"/>
<circle cx="459.384" cy="651.336" r="2.83806" fill="#FFF500"/>
<circle cx="304" cy="639.274" r="3.54758" fill="#FFF500"/>
<circle cx="296.195" cy="678.297" r="2.83806" fill="#FFF500"/>
<circle cx="487.765" cy="651.336" r="2.83806" fill="#FFF500"/>
<circle cx="551.621" cy="651.336" r="2.83806" fill="#FFF500"/>
<path d="M380.411 0V237.001C380.411 243.005 377.713 248.692 373.063 252.49L356.557 265.972C351.907 269.77 349.209 275.457 349.209 281.462V317.154" stroke="#FFF500" stroke-linecap="round" stroke-linejoin="round"/>
<path d="M387.345 0V241.521C387.345 247.45 384.714 253.073 380.163 256.873L363.903 270.449C359.352 274.249 356.721 279.873 356.721 285.802V316.829" stroke="#FFF500" stroke-linecap="round" stroke-linejoin="round"/>
<path d="M374.633 0V241.521C374.633 247.45 372.002 253.073 367.451 256.873L351.191 270.449C346.64 274.249 344.009 279.873 344.009 285.802V316.829" stroke="#FFF500" stroke-linecap="round" stroke-linejoin="round"/>
<path d="M394.856 0V246.3C394.856 252.322 392.142 258.024 387.468 261.822L371.043 275.168C366.369 278.966 363.655 284.668 363.655 290.69V316.829" stroke="#FFF500" stroke-linecap="round" stroke-linejoin="round"/>
<path d="M368.855 0V246.3C368.855 252.322 366.141 258.024 361.467 261.822L345.041 275.168C340.367 278.966 337.653 284.668 337.653 290.69V316.829" stroke="#FFF500" stroke-linecap="round" stroke-linejoin="round"/>
<path d="M402.368 0V250.835C402.368 256.857 399.654 262.558 394.981 266.356L378.553 279.706C373.88 283.504 371.166 289.206 371.166 295.228V316.829" stroke="#FFF500" stroke-linecap="round" stroke-linejoin="round"/>
<path d="M363.655 0V250.835C363.655 256.857 360.941 262.558 356.268 266.356L339.84 279.706C335.166 283.504 332.453 289.206 332.453 295.228V316.829" stroke="#FFF500" stroke-linecap="round" stroke-linejoin="round"/>
<path d="M409.302 0V255.78C409.302 261.707 406.672 267.329 402.123 271.129L385.857 284.716C381.307 288.516 378.678 294.138 378.678 300.066V326.762" stroke="#FFF500" stroke-linecap="round" stroke-linejoin="round"/>
<path d="M356.721 0V255.78C356.721 261.707 354.092 267.329 349.542 271.129L333.276 284.716C328.727 288.516 326.097 294.138 326.097 300.066V316.829" stroke="#FFF500" stroke-linecap="round" stroke-linejoin="round"/>
<path d="M416.813 0V260.419C416.813 266.428 414.111 272.119 409.454 275.917L392.971 289.362C388.314 293.16 385.611 298.851 385.611 304.86V331.019" stroke="#FFF500" stroke-linecap="round" stroke-linejoin="round"/>
<path d="M351.521 0V260.419C351.521 266.428 348.818 272.119 344.162 275.917L327.678 289.362C323.021 293.16 320.319 298.851 320.319 304.86V316.829" stroke="#FFF500" stroke-linecap="round" stroke-linejoin="round"/>
<path d="M226.17 0V155.161C226.17 158.539 227.026 161.862 228.658 164.821L254.884 212.367C256.516 215.325 257.372 218.649 257.372 222.027V317.154" stroke="#FFF500" stroke-linecap="round" stroke-linejoin="round"/>
<path d="M219.236 0V164.999C219.236 168.315 220.061 171.579 221.635 174.497L247.461 222.356C249.036 225.274 249.86 228.538 249.86 231.854V316.434" stroke="#FFF500" stroke-linecap="round" stroke-linejoin="round"/>
<path d="M231.948 0V164.999C231.948 168.315 232.773 171.579 234.347 174.497L260.173 222.356C261.748 225.274 262.572 228.538 262.572 231.854V316.434" stroke="#FFF500" stroke-linecap="round" stroke-linejoin="round"/>
<path d="M211.725 0V175.847C211.725 179.24 212.588 182.578 214.234 185.546L240.417 232.764C242.063 235.732 242.927 239.07 242.927 242.463V316.433" stroke="#FFF500" stroke-linecap="round" stroke-linejoin="round"/>
<path d="M237.726 0V175.847C237.726 179.24 238.59 182.578 240.235 185.546L266.419 232.764C268.065 235.732 268.928 239.07 268.928 242.463V316.433" stroke="#FFF500" stroke-linecap="round" stroke-linejoin="round"/>
<path d="M204.213 0V185.911C204.213 189.304 205.077 192.642 206.722 195.609L232.907 242.838C234.552 245.806 235.415 249.143 235.415 252.536V316.434" stroke="#FFF500" stroke-linecap="round" stroke-linejoin="round"/>
<path d="M242.926 0V185.911C242.926 189.304 243.79 192.642 245.435 195.609L271.62 242.838C273.265 245.806 274.128 249.143 274.128 252.536V316.434" stroke="#FFF500" stroke-linecap="round" stroke-linejoin="round"/>
<path d="M197.28 0V196.644C197.28 199.958 198.104 203.221 199.677 206.139L225.506 254.021C227.08 256.939 227.904 260.202 227.904 263.516V316.434" stroke="#FFF500" stroke-linecap="round" stroke-linejoin="round"/>
<path d="M249.86 0V196.644C249.86 199.958 250.684 203.221 252.258 206.139L278.087 254.021C279.66 256.939 280.484 260.202 280.484 263.516V316.434" stroke="#FFF500" stroke-linecap="round" stroke-linejoin="round"/>
<path d="M189.768 0V207.151C189.768 210.533 190.626 213.861 192.262 216.822L218.476 264.277C220.112 267.238 220.97 270.565 220.97 273.948V330.634" stroke="#FFF500" stroke-linecap="round" stroke-linejoin="round"/>
<path d="M255.061 0V207.151C255.061 210.533 255.918 213.861 257.554 216.822L283.769 264.277C285.404 267.238 286.262 270.565 286.262 273.948V316.434" stroke="#FFF500" stroke-linecap="round" stroke-linejoin="round"/>
<circle cx="403.332" cy="207.888" r="3.54758" fill="#FFF500"/>
<circle cx="189.768" cy="211.436" r="4.25709" fill="#FFF500"/>
<circle cx="219.568" cy="244.073" r="4.25709" fill="#FFF500"/>
<circle cx="224.534" cy="203.631" r="2.12855" fill="#FFF500"/>
<circle cx="197.573" cy="124.165" r="2.12855" fill="#FFF500"/>
<circle cx="246.529" cy="221.369" r="4.25709" fill="#FFF500"/>
<circle cx="257.172" cy="284.516" r="3.54758" fill="#FFF500"/>
<circle cx="363.599" cy="305.801" r="3.54758" fill="#FFF500"/>
<path d="M-121 493.823L27.0723 493.823C33.4516 493.823 39.4483 490.78 43.2146 485.631L87.2815 425.387C91.0478 420.239 97.0445 417.195 103.424 417.195L194.025 417.195" stroke="#FFF500" stroke-linecap="round" stroke-linejoin="round"/>
<path d="M-121 510.851L37.7624 510.851C44.0562 510.851 49.983 507.889 53.7602 502.854L98.1875 443.64C101.965 438.605 107.891 435.643 114.185 435.643L194.025 435.643" stroke="#FFF500" stroke-linecap="round" stroke-linejoin="round"/>
<path d="M-121 479.633L37.1175 479.633C43.434 479.633 49.3792 476.649 53.1538 471.584L97.2088 412.472C100.983 407.408 106.929 404.424 113.245 404.424L194.025 404.424" stroke="#FFF500" stroke-linecap="round" stroke-linejoin="round"/>
<path d="M-121 529.299L48.5065 529.299C54.892 529.299 60.8938 526.25 64.6592 521.092L108.624 460.877C112.389 455.72 118.391 452.671 124.777 452.671L194.025 452.671" stroke="#FFF500" stroke-linecap="round" stroke-linejoin="round"/>
<path d="M-121 465.442L47.7296 465.442C54.0633 465.442 60.0227 462.442 63.7951 457.354L108.619 396.902C112.391 391.815 118.35 388.815 124.684 388.815L194.025 388.815" stroke="#FFF500" stroke-linecap="round" stroke-linejoin="round"/>
<path d="M-121 547.746L58.514 547.746C64.899 547.746 70.9003 544.698 74.6658 539.541L118.639 479.324C122.405 474.167 128.406 471.118 134.791 471.118L194.025 471.118" stroke="#FFF500" stroke-linecap="round" stroke-linejoin="round"/>
<path d="M-121 452.671L56.9474 452.671C63.2844 452.671 69.2466 449.668 73.0185 444.576L117.787 384.139C121.559 379.047 127.521 376.043 133.858 376.043L194.025 376.043" stroke="#FFF500" stroke-linecap="round" stroke-linejoin="round"/>
<path d="M-121 564.775L69.2272 564.775C75.5198 564.775 81.4454 561.813 85.2228 556.78L129.672 497.56C133.449 492.527 139.375 489.566 145.667 489.566L194.025 489.566" stroke="#FFF500" stroke-linecap="round" stroke-linejoin="round"/>
<path d="M-121 435.643L69.2272 435.643C75.5198 435.643 81.4454 432.681 85.2228 427.648L129.672 368.428C133.449 363.395 139.375 360.434 145.667 360.434H194.025" stroke="#FFF500" stroke-linecap="round" stroke-linejoin="round"/>
<path d="M-121 583.222L79.6379 583.222C86.0107 583.222 92.002 580.185 95.7692 575.045L139.945 514.771C143.712 509.631 149.703 506.594 156.076 506.594L193.309 506.594" stroke="#FFF500" stroke-linecap="round" stroke-linejoin="round"/>
<path d="M208.216 346.244H156.488C150.192 346.244 144.265 349.208 140.488 354.244L95.0169 414.871C91.2398 419.907 85.312 422.871 79.0169 422.871L-32.0732 422.871C-44.1226 422.871 -55.7667 418.52 -64.8632 410.618L-85.6531 392.558C-97.8729 381.943 -90.3655 361.853 -74.1789 361.853V361.853C-57.8228 361.853 -50.41 382.297 -62.9651 392.78L-85.0885 411.252C-94.0797 418.759 -105.421 422.871 -117.134 422.871L-121 422.871" stroke="#FFF500" stroke-linecap="round" stroke-linejoin="round"/>
<circle cx="33.6746" cy="547.746" r="2.83806" fill="#FFF500"/>
<circle cx="73.4075" cy="446.995" r="4.25709" fill="#FFF500"/>
<circle cx="147.197" cy="435.643" r="4.25709" fill="#FFF500"/>
<path d="M723.324 353.458L572.459 353.458C568.063 353.458 563.791 354.906 560.301 357.578L515.326 392.011C511.836 394.683 507.563 396.131 503.168 396.131L411.137 396.131" stroke="#FFF500" stroke-linecap="round" stroke-linejoin="round"/>
<path d="M723.324 343.975L562.744 343.975C558.421 343.975 554.214 345.376 550.754 347.967L505.495 381.865C502.035 384.457 497.829 385.858 493.506 385.858L411.847 385.858" stroke="#FFF500" stroke-linecap="round" stroke-linejoin="round"/>
<path d="M723.324 361.36L562.744 361.36C558.421 361.36 554.214 362.761 550.754 365.352L505.495 399.251C502.035 401.842 497.829 403.243 493.506 403.243L411.847 403.243" stroke="#FFF500" stroke-linecap="round" stroke-linejoin="round"/>
<path d="M723.324 333.702L552.081 333.702C547.668 333.702 543.379 335.161 539.882 337.853L495.224 372.224C491.727 374.915 487.439 376.375 483.026 376.375L411.847 376.375" stroke="#FFF500" stroke-linecap="round" stroke-linejoin="round"/>
<path d="M723.324 369.263L552.081 369.263C547.668 369.263 543.379 370.722 539.882 373.413L495.224 407.785C491.727 410.476 487.439 411.936 483.026 411.936L411.847 411.936" stroke="#FFF500" stroke-linecap="round" stroke-linejoin="round"/>
<path d="M723.324 323.429L648.19 323.429C646.189 323.429 644.568 321.807 644.568 319.806V319.806C644.568 316.885 641.287 315.166 638.885 316.827L631.483 321.948C630.088 322.912 628.433 323.429 626.738 323.429L542.163 323.429C537.751 323.429 533.463 324.888 529.966 327.579L485.298 361.952C481.802 364.643 477.513 366.102 473.101 366.102L411.847 366.102" stroke="#FFF500" stroke-linecap="round" stroke-linejoin="round"/>
<path d="M721.195 376.375L542.163 376.375C537.751 376.375 533.463 377.834 529.966 380.525L485.298 414.898C481.802 417.589 477.513 419.048 473.101 419.048L411.847 419.048" stroke="#FFF500" stroke-linecap="round" stroke-linejoin="round"/>
<path d="M723.324 313.946L665.199 313.946C660.074 313.946 655.92 309.791 655.92 304.667V304.667C655.92 296.417 645.961 292.269 640.105 298.08L628.772 309.324C625.789 312.285 621.756 313.946 617.553 313.946L531.563 313.946C527.241 313.946 523.036 315.346 519.576 317.936L474.294 351.839C470.834 354.429 466.629 355.829 462.307 355.829L411.847 355.829" stroke="#FFF500" stroke-linecap="round" stroke-linejoin="round"/>
<path d="M722.614 385.858L531.563 385.858C527.241 385.858 523.036 387.257 519.576 389.848L474.294 423.75C470.834 426.34 466.629 427.74 462.307 427.74L411.847 427.74" stroke="#FFF500" stroke-linecap="round" stroke-linejoin="round"/>
<path d="M721.905 303.673L687.001 303.673C678.064 303.673 670.82 296.428 670.82 287.492V287.492C670.82 272.683 652.576 265.655 642.641 276.635L624.131 297.092C620.339 301.282 614.952 303.673 609.301 303.673L521.232 303.673C516.832 303.673 512.554 305.124 509.062 307.801L464.175 342.217C460.684 344.895 456.406 346.346 452.006 346.346L392.69 346.346" stroke="#FFF500" stroke-linecap="round" stroke-linejoin="round"/>
<path d="M723.324 392.97L521.232 392.97C516.832 392.97 512.554 394.421 509.063 397.098L464.176 431.514C460.684 434.192 456.406 435.643 452.006 435.643L411.847 435.643" stroke="#FFF500" stroke-linecap="round" stroke-linejoin="round"/>
<circle cx="571.488" cy="313.606" r="2.83806" fill="#FFF500"/>
<path d="M79.0835 95.0751H152.873V201.503H79.0835V95.0751Z" fill="#5B57CA"/>
<path d="M81.9215 97.9132H155.711V204.341H81.9215V97.9132Z" fill="#5B57CA"/>
<path d="M84.7596 100.751H158.549V207.179H84.7596V100.751Z" fill="#5B57CA"/>
<path d="M87.5977 103.589H161.387V210.017H87.5977V103.589Z" fill="#5B57CA"/>
<path d="M90.4357 106.427H164.225V212.855H90.4357V106.427Z" fill="#5B57CA"/>
<path d="M93.2738 109.265H167.063V215.693H93.2738V109.265Z" fill="#5B57CA"/>
<path d="M130.352 181.098L130.352 181.098L129.675 181.011L129.796 181.683L129.796 181.683L129.796 181.683L129.797 181.684L129.798 181.69L129.802 181.718C129.806 181.744 129.813 181.785 129.82 181.838C129.835 181.946 129.855 182.106 129.873 182.311C129.91 182.722 129.941 183.313 129.917 184.023C129.87 185.447 129.605 187.332 128.739 189.211C127.877 191.082 126.415 192.955 123.955 194.366C121.489 195.78 117.991 196.745 113.033 196.745H112.948H112.864H112.779H112.695H112.61H112.524H112.439H112.353H112.268H112.182H112.096H112.01H111.923H111.837H111.75H111.663H111.576H111.489H111.402H111.314H111.226H111.139H111.051H110.962H110.874H110.786H110.697H110.608H110.52H110.431H110.341H110.252H110.163H110.073H109.983H109.893H109.803H109.713H109.623H109.533H109.442H109.351H109.261H109.17H109.079H108.988H108.896H108.805H108.713H108.622H108.53H108.438H108.346H108.254H108.162H108.07H107.977H107.885H107.792H107.699H107.606H107.513H107.42H107.327H107.234H107.141H107.047H106.954H106.86H106.766H106.673H106.579H106.485H106.391H106.297H106.202H106.108H106.014H105.919H105.825H105.73H105.636H105.541H105.446H105.351H105.256H105.161H105.066H104.971H104.876H104.78H104.685H104.59H104.494H104.399H104.303H104.207H104.112H104.016H103.92H103.824H103.728H103.633H103.537H103.441H103.345H103.248H103.152H103.056H102.96H102.864H102.768H102.671H102.575H102.479H102.382H102.286H102.189H102.093H101.996H101.9H101.803H101.707H101.61H101.514H101.417H101.32H101.224H101.127H101.031H100.934H100.837H100.741H100.644H100.547H100.451H100.354H100.257H100.161H100.064H99.9675H99.8709H99.7743H99.6777H99.5811H99.4845H99.3879H99.2914H99.1949H99.0983H99.0019H98.9054H98.8089H98.7125H98.6161H98.5197H98.4234H98.3271H98.2308H98.1345H98.0383H97.9421H97.846H97.7499H97.6538H97.5578H97.4618H97.3658H97.2699H97.1741H97.0783H96.9825H96.8868H96.7911H96.6955H96.6H96.5045H96.409H96.3137H96.2183H96.1231H96.0279H95.9327H95.8377H95.7427H95.6477H95.5529H95.4581H95.3633H95.2687H95.1741H95.0796H94.9852H94.8908H94.7966H94.7024H94.6083H94.5143H94.4203H94.3265H94.2327H94.1391H94.0455H93.952H93.8586H93.7653H93.6721H93.579H93.486H93.3931H93.3003H93.2076H93.115H93.0225H92.9302H92.8379H92.7457H92.6537H92.5617H92.4699H92.3782H92.2866H92.1951H92.1038H92.0125H91.9214H91.8304H91.7396H91.6488H91.5582H91.4678H91.3774H91.2872H91.1971H91.1071H91.0173H90.9277H90.8381H90.7487H90.6595H90.5703H90.4814H90.3925H90.3039H90.2153H90.127H90.0387H89.9506H89.8627H89.7749H89.6873H89.5999H89.5126H89.4254H89.3385H89.2516H89.165H89.0785H88.9922H88.9061H88.8201H88.7343H88.6486H88.5632H88.4779H88.3928H88.3079H88.2231H88.1385H88.0542H87.9699H87.8859H87.8021H87.7185H87.635H87.5517H87.4687H87.3858H87.3031H87.2206H87.1383H87.0562H86.9743H86.8926H86.8111H86.7298H86.6488H86.5679H86.4872H86.4067H86.3265H86.2465H86.1666H86.087H86.0076H85.9285H85.8495H85.7708H85.6923H85.614H85.5359H85.4581H85.3805H85.3031H85.2259H85.149H85.0723H84.9958H84.9196H84.8436H84.7679H84.6924H84.6171H84.5421H84.4673H84.3928H84.3185H84.2444H84.1706H84.0971H84.0238H83.9508H83.878H83.8055H83.7332H83.6612H83.5894H83.5179H83.4467H83.3757H83.305H83.2346H83.1644H83.0945H83.0249H82.9555H82.8865H82.8177H82.7491H82.6809H82.6129H82.5452H82.4778H82.4107H82.3438H82.2773H82.211H82.145H82.0793H82.0139H81.9488H81.884H81.8194H81.7552H81.6913H81.6277H81.5643H81.5013H81.4386H81.3762H81.3141H81.2523H81.1908H81.1296H81.0687H81.0081H80.9479H80.888H80.8284H80.7691H80.7101H80.6514H80.5931H80.5351H80.4774H80.42H80.363H80.3063H80.25H80.1939H80.1382H80.0828H80.0278H79.9731H79.9188H79.8647H79.8111H79.7577H79.7047H79.6521H79.5998H79.5479H79.4963H79.445H79.3941H79.3436H79.2934H79.2436H79.1941H79.145H79.0962H79.0479H78.9998H78.9522H78.9049H78.8579H78.8114H78.7652H78.7194H78.6739H78.6289H78.5842H78.5399H78.4959H78.4524H78.4092H78.3664H78.324H78.282H78.2403H78.1991H78.1582H78.1177H78.0776H78.038H77.9987H77.9598H77.9213H77.8832H77.8455H77.8082H77.7713H77.7348H77.6987H77.663H77.6277H77.5929H77.5584H77.5244H77.4908H77.4576H77.4248H77.3924H77.3604H77.3289H77.2978H77.2671H77.2368H77.207H77.1776H77.1486H77.12H77.0919H77.0642H77.037H77.0101H76.9838H76.9578H76.9323H76.9072H76.8826H76.8584H76.8347H76.8114H76.7886H76.7662H76.7454V91.318H149.535V91.3349V91.3719V91.4101V91.4495V91.4901V91.5319V91.575V91.6192V91.6647V91.7113V91.7591V91.8082V91.8584V91.9098V91.9623V92.0161V92.071V92.127V92.1842V92.2426V92.3021V92.3628V92.4246V92.4875V92.5516V92.6167V92.683V92.7504V92.819V92.8886V92.9593V93.0312V93.1041V93.1781V93.2532V93.3294V93.4066V93.4849V93.5643V93.6447V93.7262V93.8088V93.8924V93.977V94.0627V94.1494V94.2371V94.3259V94.4156V94.5064V94.5982V94.691V94.7848V94.8796V94.9754V95.0722V95.17V95.2687V95.3684V95.4691V95.5708V95.6734V95.7769V95.8815V95.9869V96.0933V96.2007V96.3089V96.4181V96.5283V96.6393V96.7513V96.8641V96.9779V97.0926V97.2082V97.3246V97.442V97.5602V97.6793V97.7993V97.9201V98.0418V98.1644V98.2878V98.4121V98.5372V98.6632V98.79V98.9177V99.0461V99.1754V99.3055V99.4364V99.5681V99.7007V99.834V99.9681V100.103V100.239V100.375V100.513V100.651V100.789V100.929V101.069V101.21V101.352V101.495V101.638V101.782V101.927V102.072V102.219V102.366V102.513V102.662V102.811V102.961V103.111V103.262V103.414V103.567V103.72V103.874V104.028V104.183V104.339V104.496V104.653V104.811V104.969V105.128V105.288V105.449V105.61V105.771V105.933V106.096V106.26V106.424V106.588V106.753V106.919V107.086V107.253V107.42V107.588V107.757V107.926V108.096V108.266V108.437V108.609V108.78V108.953V109.126V109.299V109.474V109.648V109.823V109.999V110.175V110.351V110.528V110.706V110.884V111.062V111.241V111.421V111.601V111.781V111.962V112.143V112.325V112.507V112.69V112.873V113.056V113.24V113.424V113.609V113.794V113.979V114.165V114.352V114.538V114.725V114.913V115.101V115.289V115.477V115.666V115.856V116.045V116.235V116.425V116.616V116.807V116.998V117.19V117.382V117.574V117.767V117.96V118.153V118.347V118.54V118.735V118.929V119.124V119.319V119.514V119.709V119.905V120.101V120.297V120.494V120.69V120.887V121.085V121.282V121.48V121.678V121.876V122.074V122.273V122.471V122.67V122.869V123.069V123.268V123.468V123.668V123.868V124.068V124.268V124.469V124.67V124.87V125.071V125.272V125.474V125.675V125.876V126.078V126.28V126.482V126.684V126.886V127.088V127.29V127.492V127.695V127.897V128.1V128.302V128.505V128.708V128.911V129.113V129.316V129.519V129.722V129.925V130.128V130.331V130.535V130.738V130.941V131.144V131.347V131.55V131.753V131.956V132.16V132.363V132.566V132.769V132.972V133.175V133.378V133.58V133.783V133.986V134.189V134.391V134.594V134.796V134.999V135.201V135.403V135.605V135.807V136.009V136.211V136.413V136.615V136.816V137.017V137.219V137.42V137.621V137.821V138.022V138.223V138.423V138.623V138.823V139.023V139.223V139.422V139.621V139.82V140.019V140.218V140.417V140.615V140.813V141.011V141.209V141.406V141.603V141.8V141.997V142.193V142.39V142.586V142.781V142.977V143.172V143.367V143.561V143.756V143.95V144.144V144.337V144.53V144.723V144.916V145.108V145.3V145.492V145.683V145.874V146.065V146.255V146.445V146.634V146.824V147.013V147.201V147.389V147.577V147.764V147.952V148.138V148.324V148.51V148.696V148.881V149.065V149.25V149.434V149.617V149.8V149.982V150.165V150.346V150.527V150.708V150.889V151.068V151.248V151.427V151.605V151.783V151.961V152.138V152.314V152.49V152.666V152.841V153.015V153.189V153.363V153.536V153.708V153.88V154.051V154.222V154.392V154.562V154.731V154.9V155.068V155.236V155.402V155.569V155.735V155.9V156.064V156.228V156.392V156.554V156.717V156.878V157.039V157.199V157.359V157.518V157.677V157.834V157.991V158.148V158.304V158.459V158.613V158.767V158.92V159.073V159.225V159.376V159.526V159.676V159.825V159.973V160.121V160.268V160.414V160.559V160.704V160.848V160.991V161.134V161.276V161.417V161.557V161.697V161.835V161.973V162.11V162.247V162.382V162.517V162.651V162.785V162.917V163.049V163.18V163.31V163.439V163.567V163.695V163.822V163.948V164.073V164.197V164.32V164.443V164.564V164.685V164.805V164.924V165.042V165.159V165.276V165.391V165.506V165.62V165.732V165.844V165.955V166.065V166.174V166.283V166.39V166.496V166.602V166.706V166.81V166.912V167.014V167.114V167.214C149.535 171.34 148.334 174.233 146.571 176.273C144.801 178.32 142.428 179.549 140.018 180.271C137.609 180.993 135.19 181.201 133.367 181.227C132.457 181.24 131.699 181.207 131.171 181.172C130.906 181.154 130.7 181.135 130.56 181.121C130.49 181.114 130.437 181.108 130.402 181.104L130.363 181.1L130.354 181.099L130.352 181.098L130.352 181.098Z" stroke="#FFF500"/>
<path d="M76.2454 90.818L76.7454 90.818L76.7454 91.318L76.2454 91.318L76.2454 90.818ZM49.2838 90.818L49.2838 91.318L49.2838 90.818ZM49.2838 37.3948C34.6694 37.3948 22.8222 49.2421 22.8222 63.8564L21.8222 63.8564C21.8222 48.6898 34.1171 36.3948 49.2838 36.3948L49.2838 37.3948ZM75.7454 63.8564C75.7454 49.2421 63.8981 37.3948 49.2838 37.3948L49.2838 36.3948C64.4504 36.3948 76.7454 48.6898 76.7454 63.8564L75.7454 63.8564ZM75.7454 90.818L75.7454 63.8564L76.7454 63.8564L76.7454 90.818L75.7454 90.818ZM49.2838 90.318L76.2454 90.318L76.2454 91.318L49.2838 91.318L49.2838 90.318ZM22.8222 63.8564C22.8222 78.4708 34.6694 90.318 49.2838 90.318L49.2838 91.318C34.1171 91.318 21.8222 79.023 21.8222 63.8564L22.8222 63.8564Z" fill="#FFF500"/>
<rect x="36.1882" y="60.7751" width="6.16265" height="6.16265" rx="3.08133" fill="#FFF500"/>
<rect x="46.2025" y="60.7751" width="6.16265" height="6.16265" rx="3.08133" fill="#FFF500"/>
<rect x="56.2168" y="60.7751" width="6.16266" height="6.16265" rx="3.08133" fill="#FFF500"/>
<line x1="113.64" y1="115.442" x2="113.64" y2="172.622" stroke="#FFF500" stroke-linecap="round" stroke-linejoin="round"/>
<line x1="0.5" y1="-0.5" x2="52.0137" y2="-0.5" transform="matrix(-0.999819 -0.0190427 0 -1 140.102 144.322)" stroke="#FFF500" stroke-linecap="round" stroke-linejoin="round"/>
<line x1="125.578" y1="155.048" x2="103.207" y2="132.677" stroke="#FFF500" stroke-linecap="round" stroke-linejoin="round"/>
<line x1="124.866" y1="132.677" x2="102.495" y2="155.048" stroke="#FFF500" stroke-linecap="round" stroke-linejoin="round"/>
<path d="M115.269 215.693V329.925V329.925C115.269 346.285 134.981 354.555 146.653 343.091L149.184 340.606C152.913 336.943 157.93 334.891 163.157 334.891H218.149" stroke="#FFF500"/>
<circle cx="115.269" cy="216.402" r="4.96661" fill="#FFF500"/>
<circle cx="304.71" cy="414.357" r="252.588" fill="#FFF500" fill-opacity="0.1"/>
<circle cx="304.71" cy="414.357" r="201.502" fill="#FFF500" fill-opacity="0.1"/>
<circle cx="301.872" cy="421.452" r="146.16" fill="#FFF500"/>
<rect x="480.97" y="121.396" width="94.7708" height="61.0451" fill="#5B57CA"/>
<rect x="480.97" y="121.396" width="30.8005" height="16.6487" fill="#FF0F00"/>
<path d="M490.921 125.36L486.499 129.799L490.921 134.238" stroke="black" stroke-linecap="round" stroke-linejoin="round"/>
<path d="M501.845 125.36L506.267 129.799L501.845 134.238" stroke="black" stroke-linecap="round" stroke-linejoin="round"/>
<line x1="0.5" y1="-0.5" x2="9.41277" y2="-0.5" transform="matrix(-0.498561 0.866854 -0.865192 -0.50144 498.415 125.36)" stroke="black" stroke-linecap="round" stroke-linejoin="round"/>
<rect x="417" y="77" width="94.7708" height="61.0452" stroke="#FFF500"/>
<path d="M511.771 92.0631L511.271 92.0631L511.271 92.5631L511.771 92.5631L511.771 92.0631ZM526.776 62.4369C534.785 62.4369 541.281 68.9552 541.281 77L542.281 77C542.281 68.4066 535.341 61.4369 526.776 61.4369L526.776 62.4369ZM512.271 77C512.271 68.9552 518.767 62.4369 526.776 62.4369L526.776 61.4369C518.211 61.4369 511.271 68.4066 511.271 77L512.271 77ZM512.271 92.0631L512.271 77L511.271 77L511.271 92.0631L512.271 92.0631ZM526.776 91.5631L511.771 91.5631L511.771 92.5631L526.776 92.5631L526.776 91.5631ZM541.281 77C541.281 85.0448 534.785 91.5631 526.776 91.5631L526.776 92.5631C535.341 92.5631 542.281 85.5935 542.281 77L541.281 77Z" fill="#5B57CA"/>
<rect width="3.4298" height="3.44299" rx="1.7149" transform="matrix(-1 0 0 1 534.064 75.2785)" fill="#5B57CA"/>
<rect width="3.42979" height="3.44299" rx="1.7149" transform="matrix(-1 0 0 1 528.491 75.2785)" fill="#5B57CA"/>
<rect width="3.42981" height="3.44299" rx="1.7149" transform="matrix(-1 0 0 1 523.098 75.4144)" fill="#5B57CA"/>
<path d="M291.339 580.795L161.653 519.09C156.069 516.433 154.397 509.279 158.225 504.422C164.225 496.809 174.203 493.533 183.548 496.107L277.795 522.075C285.614 524.229 293.973 523.126 300.966 519.015L414.444 452.313C419.354 449.426 416.389 441.888 410.828 443.121L370.7 452.013C363.596 453.587 356.342 454.381 349.065 454.381L290.213 454.381C282.723 454.381 276.238 449.177 274.618 441.864C272.756 433.462 277.885 425.095 286.218 422.942L335.318 410.258C351.699 406.026 367.402 399.506 381.963 390.889L424.413 365.769C441.932 355.403 462.196 350.629 482.5 352.087L609.463 361.201L609.463 497.377L524.106 497.377C515.98 497.377 507.938 499.028 500.468 502.229L316.047 581.279C308.124 584.675 299.123 584.498 291.339 580.795Z" fill="#5B57CA"/>
<path d="M572.907 354.791C572.907 352.03 575.145 349.791 577.907 349.791H723.324V539.193L577.116 515.783C574.691 515.394 572.907 513.302 572.907 510.845V354.791Z" fill="#5F5AE0"/>
</g>
<defs>
<clipPath id="clip0">
<rect width="595" height="842" fill="white"/>
</clipPath>
</defs>
</svg>
