<?xml version="1.0" encoding="UTF-8" standalone="no"?>
<svg width="595" height="842" viewBox="0 0 595 842" fill="none" xmlns="http://www.w3.org/2000/svg" xmlns:dc="http://purl.org/dc/elements/1.1/" xmlns:cc="http://creativecommons.org/ns#" xmlns:rdf="http://www.w3.org/1999/02/22-rdf-syntax-ns#">
<metadata id="metadata5">
    <rdf:RDF>
       <cc:Work rdf:about="">
          <dc:format>image/svg+xml</dc:format>
            <dc:type rdf:resource="http://purl.org/dc/dcmitype/StillImage" />
            <dc:title></dc:title>
            <cc:license rdf:resource="http://creativecommons.org/publicdomain/zero/1.0/" />
       </cc:Work>
       <cc:License rdf:about="http://creativecommons.org/publicdomain/zero/1.0/">
            <cc:permits rdf:resource="http://creativecommons.org/ns#Reproduction" />
            <cc:permits rdf:resource="http://creativecommons.org/ns#Distribution" />
            <cc:permits rdf:resource="http://creativecommons.org/ns#DerivativeWorks" />
       </cc:License>
    </rdf:RDF>
</metadata>
<g clip-path="url(#clip0)">
<rect width="595" height="842" fill="#56CCF2"/>
<path d="M353.189 555.208L596 582L596 468.549L375.081 490.445C346.189 493.309 317.545 483.002 297.102 462.386L280.734 445.879C274.147 439.236 262.932 441.355 259.222 449.943C254.345 461.237 243.221 468.549 230.92 468.549L188.2 468.549C185.843 468.549 183.559 469.369 181.739 470.867L180.733 471.695C176.705 475.011 175.332 480.578 177.356 485.386C178.721 488.63 178.035 492.374 175.609 494.923L172.819 497.854C168.788 502.089 168.074 508.491 171.072 513.511C172.851 516.49 172.917 520.189 171.243 523.229L170.434 524.699C167.735 529.602 168.162 535.631 171.525 540.105C173.964 543.351 174.9 547.484 174.097 551.464L173.976 552.066C172.729 558.246 176.606 564.302 182.74 565.758L236.333 578.475C246.015 580.773 256.162 580.129 265.476 576.627L307.025 561.003C321.744 555.469 337.559 553.484 353.189 555.208Z" fill="#FFB7B7"/>
<path d="M415.414 384.398L425.148 146L307.616 146L333.953 380.337C336.452 402.571 329.684 424.852 315.241 441.94L306.017 452.853C300.035 459.93 302.585 470.774 311.093 474.445C322.902 479.54 330.549 491.168 330.549 504.029L330.549 552.818C330.549 555.176 331.37 557.461 332.87 559.282L333.692 560.28C337.011 564.306 342.577 565.679 347.386 563.657C350.63 562.293 354.374 562.978 356.925 565.403L359.852 568.187C364.089 572.215 370.49 572.929 375.511 569.933C378.49 568.156 382.189 568.09 385.229 569.762L386.701 570.571C391.603 573.267 397.631 572.841 402.105 569.482C405.351 567.044 409.483 566.109 413.463 566.911L413.986 567.016C420.179 568.264 426.228 564.313 427.574 558.141L440.85 497.278C442.906 487.854 442.192 478.036 438.794 469.008L421.741 423.707C417.019 411.161 414.867 397.793 415.414 384.398Z" fill="#683838"/>
<path d="M242.649 292.789L1.15043e-05 266L-4.95358e-09 379.451L220.785 357.556C249.666 354.691 278.299 364.999 298.729 385.613L315.084 402.116C321.669 408.76 332.883 406.642 336.59 398.054C341.464 386.763 352.584 379.451 364.882 379.451L411.81 379.451C414.167 379.451 416.452 378.631 418.272 377.132L419.274 376.306C423.301 372.989 424.674 367.423 422.651 362.614C421.286 359.37 421.972 355.626 424.397 353.076L427.184 350.147C431.213 345.911 431.927 339.509 428.931 334.489C427.152 331.51 427.087 327.811 428.76 324.771L429.569 323.3C432.266 318.397 431.839 312.369 428.479 307.895C426.04 304.649 425.105 300.516 425.907 296.537L426.018 295.983C427.266 289.795 423.344 283.744 417.186 282.356L359.216 269.29C349.694 267.144 339.752 267.832 330.616 271.269L288.836 286.988C274.111 292.528 258.287 294.515 242.649 292.789Z" fill="#FF7F80"/>
<path d="M181.287 458.539L182.792 688L284.685 688L262.513 458.648C260.537 438.205 265.946 417.73 277.761 400.93L285.809 389.487C291.066 382.013 288.126 371.595 279.738 367.971C267.424 362.652 259.451 350.522 259.451 337.109L259.451 296.204C259.451 293.847 258.632 291.563 257.134 289.744L256.304 288.735C252.989 284.707 247.422 283.334 242.614 285.358C239.37 286.724 235.626 286.038 233.077 283.611L230.146 280.82C225.911 276.789 219.509 276.075 214.489 279.073C211.51 280.853 207.811 280.918 204.771 279.245L203.301 278.435C198.398 275.736 192.368 276.163 187.895 279.526C184.649 281.966 180.515 282.902 176.535 282.099L175.933 281.978C169.754 280.731 163.698 284.607 162.243 290.741L149.922 342.676C147.379 353.396 148.447 364.656 152.962 374.706L172.508 418.22C178.206 430.903 181.195 444.635 181.287 458.539Z" fill="#391F1F"/>
<path d="M264.628 576.801L295.184 565.306C315.528 557.653 329 538.192 329 516.455C329 502.693 323.565 489.488 313.876 479.713L280.345 445.883C273.76 439.239 262.545 441.357 258.837 449.946C253.963 461.237 242.841 468.549 230.543 468.549L182.193 468.549C179.835 468.549 177.551 469.369 175.731 470.868L174.728 471.694C170.701 475.011 169.328 480.577 171.351 485.386C172.715 488.63 172.03 492.374 169.604 494.924L166.817 497.853C162.787 502.089 162.073 508.491 165.07 513.511C166.849 516.49 166.914 520.189 165.241 523.229L164.432 524.7C161.734 529.603 162.161 535.631 165.522 540.105C167.961 543.351 168.897 547.484 168.094 551.464L167.986 552.002C166.737 558.192 170.674 564.242 176.839 565.608L236.388 578.805C245.797 580.89 255.608 580.193 264.628 576.801Z" fill="#FFB7B7"/>
<path d="M298.622 149.215C296.448 148.813 294.797 147.031 294.561 144.833L279 0L443 6.24721e-06L432.741 168.358C432.558 171.356 429.792 173.517 426.839 172.97L298.622 149.215Z" fill="black"/>
<path d="M596 454L596 593L467.549 581.356C464.973 581.123 463 578.963 463 576.377L463 472.679C463 470.123 464.928 467.978 467.47 467.707L596 454Z" fill="#FF776E"/>
<path d="M279.923 650C282.508 650 284.667 651.971 284.902 654.546L299 809L178 809C175.239 809 173 806.761 173 804L173 655C173 652.239 175.239 650 178 650L279.923 650Z" fill="white"/>
<path d="M287.025 682C289.6 682 291.754 683.956 292.001 686.52L307 842L178 842C175.239 842 173 839.761 173 837L173 687C173 684.239 175.239 682 178 682L287.025 682Z" fill="#0000FF"/>
<path d="M122 266C124.761 266 127 268.239 127 271L127 376C127 378.761 124.761 381 122 381L79 381L79 266L122 266Z" fill="#9F9F9F"/>
<path d="M93 256C95.7614 256 98 258.239 98 261L98 386C98 388.761 95.7614 391 93 391L1.72836e-06 391L7.62939e-06 256L93 256Z" fill="#C4C4C4"/>
</g>
<defs>
<clipPath id="clip0">
<rect width="595" height="842" fill="white"/>
</clipPath>
</defs>
</svg>
