<?xml version="1.0" encoding="UTF-8" standalone="no"?>
<svg width="595" height="842" viewBox="0 0 595 842" fill="none" xmlns="http://www.w3.org/2000/svg" xmlns:dc="http://purl.org/dc/elements/1.1/" xmlns:cc="http://creativecommons.org/ns#" xmlns:rdf="http://www.w3.org/1999/02/22-rdf-syntax-ns#">
<metadata id="metadata5">
  <rdf:RDF>
     <cc:Work rdf:about="">
        <dc:format>image/svg+xml</dc:format>
          <dc:type rdf:resource="http://purl.org/dc/dcmitype/StillImage" />
          <dc:title>ecosystem around public code development</dc:title>
          <cc:license rdf:resource="http://creativecommons.org/publicdomain/zero/1.0/" />
     </cc:Work>
     <cc:License rdf:about="http://creativecommons.org/publicdomain/zero/1.0/">
          <cc:permits rdf:resource="http://creativecommons.org/ns#Reproduction" />
          <cc:permits rdf:resource="http://creativecommons.org/ns#Distribution" />
          <cc:permits rdf:resource="http://creativecommons.org/ns#DerivativeWorks" />
     </cc:License>
  </rdf:RDF>
</metadata>
<rect width="595" height="842" fill="#FDBBAB"/>
<g transform="scale(1.4) translate(0 75)">
    <circle cx="352.5" cy="88.5" r="22.5" fill="#FFF500"/>
    <path d="M324 117L323 117L323 118L324 118L324 117ZM352.5 61C367.688 61 380 73.3122 380 88.5L382 88.5C382 72.2076 368.792 59 352.5 59L352.5 61ZM325 88.5C325 73.3122 337.312 61 352.5 61L352.5 59C336.208 59 323 72.2076 323 88.5L325 88.5ZM325 117L325 88.5L323 88.5L323 117L325 117ZM352.5 116L324 116L324 118L352.5 118L352.5 116ZM380 88.5C380 103.688 367.688 116 352.5 116L352.5 118C368.792 118 382 104.792 382 88.5L380 88.5Z" fill="#5B57CA"/>
    <path d="M344.364 86.3492C344.05 85.8955 343.427 85.7829 342.973 86.0977C342.519 86.4126 342.406 87.0356 342.721 87.4894L344.364 86.3492ZM350.855 97.4571L350.033 98.0272C350.227 98.307 350.551 98.4688 350.891 98.4565C351.231 98.4442 351.542 98.2595 351.715 97.9665L350.855 97.4571ZM362.318 80.0522C362.599 79.5769 362.442 78.9636 361.966 78.6823C361.491 78.401 360.878 78.5582 360.597 79.0335L362.318 80.0522ZM342.721 87.4894L350.033 98.0272L351.676 96.8871L344.364 86.3492L342.721 87.4894ZM351.715 97.9665L362.318 80.0522L360.597 79.0335L349.994 96.9478L351.715 97.9665Z" fill="#5B57CA"/>
    <path d="M160.915 108.133L163.003 120.061C163.276 121.623 162.24 123.113 160.681 123.402C159.422 123.635 158.159 123.011 157.579 121.87L152.417 111.721C149.754 106.485 143.713 103.922 138.097 105.644L132.207 107.45C127.792 108.804 123.034 106.861 120.829 102.804L114.609 91.3608L147.998 95.7539C154.546 96.6154 159.776 101.628 160.915 108.133Z" fill="#0D06C1"/>
    <path d="M172.397 108.556L176.264 129.116C176.605 130.927 175.409 132.669 173.598 133.003C172.133 133.273 170.667 132.536 170.009 131.2L162.92 116.788C157.62 106.015 145.304 100.657 133.809 104.125L129.021 105.57C122.644 107.494 116.204 102.763 116.133 96.1031L116.023 85.8799L150.764 88.9444C161.555 89.8963 170.395 97.9104 172.397 108.556Z" fill="#241ED3"/>
    <path d="M173.559 102.552L187.461 124.065C188.586 125.806 188.037 128.133 186.253 129.186C184.77 130.062 182.878 129.781 181.712 128.514L166.482 111.948C158.659 103.44 146.644 100.182 135.595 103.573L129.123 105.559C122.733 107.52 116.254 102.78 116.189 96.096L116.101 86.9952L151.969 89.7161C160.777 90.3843 168.765 95.1336 173.559 102.552Z" fill="#403ADD"/>
    <path d="M217 301.057C195.471 301.057 174.608 293.592 157.965 279.934C141.323 266.276 129.931 247.27 125.731 226.155C121.531 205.039 124.782 183.12 134.931 164.133C145.08 145.146 161.498 130.265 181.389 122.027C201.279 113.788 223.411 112.7 244.013 118.95C264.615 125.2 282.413 138.399 294.374 156.3C306.335 174.201 311.719 195.696 309.609 217.121C307.499 238.547 298.025 258.578 282.801 273.801L217 208L217 301.057Z" fill="#FF6666"/>
    <path d="M217 150.614C227.073 150.614 236.969 153.265 245.693 158.302C254.417 163.339 261.661 170.583 266.698 179.307C271.735 188.031 274.386 197.927 274.386 208C274.386 218.073 271.735 227.969 266.698 236.693C261.661 245.417 254.417 252.661 245.693 257.698C236.969 262.735 227.073 265.386 217 265.386C206.927 265.386 197.031 262.735 188.307 257.698C179.583 252.661 172.339 245.417 167.302 236.693L217 208L217 150.614Z" fill="#FFF500"/>
    <path d="M217 228C213.044 228 209.178 226.827 205.889 224.629C202.6 222.432 200.036 219.308 198.522 215.654C197.009 211.999 196.613 207.978 197.384 204.098C198.156 200.219 200.061 196.655 202.858 193.858C205.655 191.061 209.219 189.156 213.098 188.384C216.978 187.613 220.999 188.009 224.654 189.522C228.308 191.036 231.432 193.6 233.629 196.889C235.827 200.178 237 204.044 237 208L217 208L217 228Z" fill="#5B57CA"/>
    <path d="M240.846 338.808L230.88 313.476C230.014 311.274 231.091 308.786 233.289 307.91C235.313 307.104 237.62 307.94 238.658 309.855L243.653 319.073C250.138 331.041 263.45 337.635 276.9 335.542L294.731 332.766L282.229 358.794L266.76 357.758C255.184 356.984 245.093 349.604 240.846 338.808Z" fill="#0D06C1"/>
    <path d="M230.062 348.809L201.522 322.841C199.553 321.05 199.76 317.894 201.946 316.375C203.314 315.425 205.118 315.386 206.526 316.278L216.409 322.538C230.056 331.181 245.837 335.858 261.99 336.047L284.449 336.308L278.525 364.883L242.767 355.671C238.037 354.452 233.675 352.097 230.062 348.809Z" fill="#241ED3"/>
    <path d="M228.222 356.834L182.375 335.491C180.456 334.598 179.457 332.455 180.004 330.411C180.637 328.051 183.083 326.672 185.429 327.352L215.834 336.17C226.445 339.248 237.431 340.845 248.479 340.917L275.724 341.094L276.818 363.72L237.641 359.46C234.379 359.106 231.197 358.218 228.222 356.834Z" fill="#403ADD"/>
    <path d="M224.679 364.935L183.047 349.069C180.573 348.127 179.213 345.466 179.898 342.909C180.62 340.215 183.352 338.581 186.067 339.22L225.434 348.48C230.065 349.57 234.89 349.542 239.508 348.4L267.282 341.529C270.542 340.722 270.804 336.189 267.658 335.013L263.649 333.514C259.35 331.906 254.817 331.01 250.23 330.86L234.755 330.356C231.524 330.251 229.001 327.528 229.142 324.299C229.266 321.48 231.398 319.158 234.196 318.794L271.356 313.967C282.595 312.507 294 312.968 305.084 315.331L363.332 327.746C372.469 329.694 379 337.764 379 347.106C379 358.039 370.138 366.901 359.205 366.901L305 366.901L235.362 366.901C231.711 366.901 228.091 366.235 224.679 364.935Z" fill="#5B57CA"/>
    <circle cx="98.5" cy="205.5" r="7.5" fill="#FFF500"/>
    <circle cx="335.5" cy="205.5" r="7.5" fill="#FFF500"/>
    <ellipse cx="217.5" cy="208" rx="118.5" ry="119" stroke="#5B57CA" stroke-width="2"/>
    <path fill-rule="evenodd" clip-rule="evenodd" d="M36 333C36 313.67 51.67 298 71 298C90.33 298 106 313.67 106 333L106 367C106 367.552 105.552 368 105 368L71 368C51.67 368 36 352.33 36 333Z" fill="#5B57CA"/>
    <rect x="54.5" y="329.5" width="7" height="7" rx="3.5" stroke="white"/>
    <rect x="67.5" y="329.5" width="7" height="7" rx="3.5" stroke="white"/>
    <rect x="80.5" y="329.5" width="7" height="7" rx="3.5" stroke="white"/>
    <circle cx="216.5" cy="88.5" r="13.5" fill="#FFF500"/>
    <path d="M199.737 42L189 52.5L199.737 63" stroke="#FFF500" stroke-width="2" stroke-linecap="round" stroke-linejoin="round"/>
    <path d="M234.263 42L245 52.5L234.263 63" stroke="#FFF500" stroke-width="2" stroke-linecap="round" stroke-linejoin="round"/>
    <circle cx="216.5" cy="52.5" r="7.5" fill="#FFF500"/>
    <ellipse cx="217" cy="207.5" rx="30" ry="29.5" stroke="#5B57CA" stroke-width="2"/>
    <circle cx="99" cy="206" r="44" stroke="#5B57CA" stroke-width="2"/>
    <circle cx="217" cy="208" r="6" fill="#FF6666"/>
    <circle cx="216" cy="327" r="12" fill="#FFF500"/>
    <path d="M345 345.996C344.448 345.996 344 346.444 344 346.996C344 347.549 344.448 347.996 345 347.996V345.996ZM368.993 347.996C369.545 347.996 369.993 347.549 369.993 346.996C369.993 346.444 369.545 345.996 368.993 345.996V347.996ZM345 347.996L368.993 347.996V345.996L345 345.996V347.996Z" fill="#F55C5C"/>
    <path d="M357.996 335C357.996 334.448 357.549 334 356.996 334C356.444 334 355.996 334.448 355.996 335H357.996ZM355.996 358.993C355.996 359.545 356.444 359.993 356.996 359.993C357.549 359.993 357.996 359.545 357.996 358.993H355.996ZM355.996 335V358.993H357.996V335H355.996Z" fill="#F55C5C"/>
    <path d="M99.1344 161.009C98.5871 160.935 98.0833 161.318 98.0091 161.866C97.9349 162.413 98.3184 162.917 98.8656 162.991L99.1344 161.009ZM216.866 178.991C217.413 179.065 217.917 178.682 217.991 178.134C218.065 177.587 217.682 177.083 217.134 177.009L216.866 178.991ZM98.8656 162.991L216.866 178.991L217.134 177.009L99.1344 161.009L98.8656 162.991Z" fill="#5B57CA"/>
    <path d="M212.886 236.007C213.434 235.943 213.93 236.337 213.993 236.886C214.057 237.434 213.663 237.93 213.114 237.993L212.886 236.007ZM100.114 250.993C99.5656 251.057 99.0697 250.663 99.0065 250.114C98.9434 249.566 99.337 249.07 99.8857 249.007L100.114 250.993ZM213.114 237.993L100.114 250.993L99.8857 249.007L212.886 236.007L213.114 237.993Z" fill="#5B57CA"/>
    <circle cx="128.5" cy="205.5" r="11.5" fill="#FFF500"/>
    <path d="M174.899 97.1398L196.049 118.96C197.809 120.776 197.408 123.76 195.23 125.046C193.909 125.827 192.253 125.762 190.997 124.88L170.387 110.422C162.846 105.131 153.292 103.598 144.474 106.265L129.864 110.683C125.582 111.977 124.97 117.787 128.888 119.946L148.457 130.731C151.409 132.358 152.263 136.207 150.275 138.929C148.954 140.739 146.68 141.586 144.496 141.081L110.523 133.224C95.3408 129.346 81.4885 121.438 70.4298 110.337L46.4595 86.2757C37.6089 77.3914 39.5035 62.5471 50.3018 56.1705C56.9223 52.261 65.236 52.6747 71.4357 57.2221L91.2365 71.7455C99.0407 77.4698 108.114 81.2212 117.682 82.6796L159.1 88.9928C165.115 89.9096 170.664 92.7712 174.899 97.1398Z" fill="#5B57CA"/>
    <path d="M61.2287 62C61.2287 61.4477 60.781 61 60.2287 61C59.6764 61 59.2287 61.4477 59.2287 62L61.2287 62ZM59.2287 82.4574C59.2287 83.0097 59.6764 83.4574 60.2287 83.4574C60.781 83.4574 61.2287 83.0097 61.2287 82.4574L59.2287 82.4574ZM59.2287 62L59.2287 82.4574L61.2287 82.4574L61.2287 62L59.2287 62Z" fill="#F55C5C"/>
    <path d="M70.4574 73.2288C71.0097 73.2288 71.4574 72.781 71.4574 72.2288C71.4574 71.6765 71.0097 71.2288 70.4574 71.2288L70.4574 73.2288ZM50 71.2288C49.4477 71.2288 49 71.6765 49 72.2288C49 72.781 49.4477 73.2288 50 73.2288L50 71.2288ZM70.4574 71.2288L50 71.2288L50 73.2288L70.4574 73.2288L70.4574 71.2288Z" fill="#F55C5C"/>
</g>
</svg>
