<svg width="506" height="182" viewBox="0 0 506 182" fill="none" xmlns="http://www.w3.org/2000/svg">
<path d="M130.914 32.0168L168.738 140.874C171.006 147.4 177.438 151.533 184.316 150.884L240.857 145.549L240.857 87.8457C240.857 81.303 235.553 75.999 229.01 75.999C221.486 75.999 215.868 82.9216 217.417 90.2844L221.022 107.42C221.708 110.683 219.218 113.75 215.884 113.75C213.398 113.75 211.253 112.006 210.745 109.573L204.97 81.8926C203.525 74.9685 209.529 68.7741 216.495 70.0019L250.519 75.999L292.941 10.7653L146.027 10.7653C135.021 10.7653 127.301 21.6203 130.914 32.0168Z" fill="#FF7F80"/>
<path d="M223.392 69.9115C223.731 67.0178 220.962 64.7437 218.19 65.6393L211.779 67.7102C211.189 67.9007 210.563 67.9515 209.951 67.8588L193.515 65.3701C189.822 64.8109 187.446 69.1684 189.915 71.97L198.888 82.1492C202.841 86.634 204.31 92.7889 202.807 98.5754L199.437 111.555C198.69 114.434 201.515 116.95 204.288 115.875V115.875C208.53 114.23 213.234 114.23 217.477 115.875L217.983 116.071C220.756 117.146 223.671 114.871 223.303 111.921L220.869 92.4222C220.829 92.1031 220.828 91.7803 220.865 91.4609L223.392 69.9115Z" fill="#FF6666"/>
<path d="M188.255 9.00011L16.4893 9.00001C7.54843 9 0.456482 16.5346 0.997192 25.4591C1.44373 32.8295 7.02103 38.8649 14.3333 39.8905L216.269 68.2159C228.915 69.9897 236.682 82.9993 232.244 94.9731L215.638 139.776C213.167 146.442 213.568 153.833 216.747 160.192C222.487 171.677 235.825 177.161 247.983 173.035L356.527 136.207C370.397 131.501 385.206 130.251 399.669 132.566L510 150.224V9.00011L414.161 9L188.255 9.00011Z" fill="#FF9999"/>
<path d="M505.802 5.61211C505.802 2.85069 503.564 0.612122 500.802 0.612122H419.506C416.745 0.612122 414.506 2.8507 414.506 5.61212V145.853C414.506 148.024 415.908 149.948 417.975 150.613L499.272 176.755C502.499 177.792 505.802 175.385 505.802 171.995V5.61211Z" fill="#0000FF"/>
</svg>
