<svg width="614" height="200" viewBox="0 0 614 200" fill="none" xmlns="http://www.w3.org/2000/svg">
<g clip-path="url(#clip0)">
<path d="M352.33 50.0618C345.872 47.4623 342.742 40.1193 345.339 33.6607V33.6607C347.936 27.2021 355.276 24.0736 361.733 26.6731L365.027 27.9991C372.864 31.1539 375.443 40.9751 370.166 47.5713V47.5713C366.692 51.9139 360.783 53.4648 355.624 51.3878L352.33 50.0618Z" fill="#FF6666"/>
<path d="M380.89 21.3972C389.463 21.3972 396.414 28.3475 396.414 36.9212L396.414 79.6875C396.414 89.6091 388.371 97.6522 378.449 97.6522V97.6522C367.718 97.6522 359.38 88.3053 360.601 77.6437L365.466 35.155C366.364 27.3159 372.999 21.3972 380.89 21.3972V21.3972Z" fill="#FF7F80"/>
<path d="M279.17 186.353L299.773 196.535C306.307 199.764 314.08 199.183 320.062 195.019L409.334 132.868C414.766 129.087 418.154 123.015 418.521 116.407L421.998 53.7794C422.45 45.6246 416.695 38.435 408.639 37.0912C400.246 35.6913 392.224 41.0973 390.37 49.4017L376.69 110.687L320.556 140.832C314.251 144.218 306.618 143.977 300.54 140.201L286.909 131.734L279.17 186.353Z" fill="#FF9999"/>
<path d="M257.369 3.54956L202.356 31.0729C194.07 35.2185 192.537 46.3952 199.401 52.6171C202.725 55.6301 207.354 56.7442 211.685 55.5737L252.327 44.5905C263.423 41.5918 275.257 45.1966 282.795 53.8721L308.541 83.4994C314.681 90.5654 308.614 101.441 299.375 99.9281L219.125 86.7861C210.896 85.4384 202.945 90.4106 200.553 98.4001C198.106 106.573 202.258 115.268 210.151 118.503L375.56 186.298C399.691 196.188 425.684 200.716 451.739 199.568L614.778 192.385L614.778 48.5263L474.211 79.919C461.125 82.8415 447.437 81.2964 435.332 75.5302L283.693 3.29448C275.348 -0.680748 265.636 -0.586645 257.369 3.54956Z" fill="#683838"/>
<path d="M169.603 130.572L279.523 186.065L313.136 174.209L264.509 123.189C258.74 117.136 262.508 107.094 270.835 106.329L371.87 97.045C379.95 96.3026 386.434 90.0536 387.476 82.0061C388.622 73.1547 382.86 64.8819 374.162 62.89L174.826 17.2398C165.283 15.0542 155.576 13.6511 145.804 13.0446L-2.40968 3.84655L-2.4097 162.306L126.446 126.345C140.857 122.323 156.249 123.83 169.603 130.572Z" fill="#FF9999"/>
<path d="M219.135 86.8177L337.414 106.433C337.85 106.506 338.242 106.738 338.514 107.086C358.547 132.707 331.609 168.284 301.515 155.95L209.749 118.339C202.084 115.197 198.052 106.753 200.428 98.8164L200.548 98.4145C202.941 90.4209 210.904 85.4527 219.135 86.8177Z" fill="#683838"/>
</g>
<defs>
<clipPath id="clip0">
<rect width="614" height="200" fill="white"/>
</clipPath>
</defs>
</svg>
