<?xml version="1.0" encoding="UTF-8" standalone="no"?>
<!DOCTYPE svg PUBLIC "-//W3C//DTD SVG 1.1//EN"
 "http://www.w3.org/Graphics/SVG/1.1/DTD/svg11.dtd">
<!-- Generated by graphviz version 2.43.0 (0)
 -->
<!-- Title: %3 Pages: 1 -->
<svg width="1125pt" height="1117pt"
 viewBox="0.00 0.00 1125.00 1117.05" xmlns="http://www.w3.org/2000/svg" xmlns:xlink="http://www.w3.org/1999/xlink">
<g id="graph0" class="graph" transform="scale(1 1) rotate(0) translate(4 1113.05)">
<title>%3</title>
<polygon fill="white" stroke="transparent" points="-4,4 -4,-1113.05 1121,-1113.05 1121,4 -4,4"/>
<g id="clust1" class="cluster">
<title>cluster_contrib</title>
<polygon fill="none" stroke="black" points="117,-741.22 117,-1101.05 659,-1101.05 659,-741.22 117,-741.22"/>
<text text-anchor="middle" x="388" y="-1085.85" font-family="Arial" font-size="14.00">Contributor</text>
</g>
<g id="clust2" class="cluster">
<title>cluster_contrib_update</title>
</g>
<g id="clust3" class="cluster">
<title>cluster_audit</title>
<polygon fill="none" stroke="black" points="667,-134.1 667,-869.31 1097,-869.31 1097,-134.1 667,-134.1"/>
<text text-anchor="middle" x="882" y="-854.11" font-family="Arial" font-size="14.00">Auditor</text>
<text text-anchor="middle" x="882" y="-839.11" font-family="Arial" font-size="14.00">(staff)</text>
</g>
<g id="clust4" class="cluster">
<title>cluster_maint</title>
<polygon fill="none" stroke="black" points="8,-8 8,-700.14 659,-700.14 659,-8 8,-8"/>
<text text-anchor="middle" x="333.5" y="-684.94" font-family="Arial" font-size="14.00">Maintainers</text>
<text text-anchor="middle" x="333.5" y="-669.94" font-family="Arial" font-size="14.00">(community or staff)</text>
</g>
<!-- contrib_context -->
<g id="node1" class="node">
<title>contrib_context</title>
<polygon fill="none" stroke="black" points="290,-1070.05 150,-1070.05 150,-987.05 290,-987.05 290,-1070.05"/>
<text text-anchor="middle" x="220" y="-1054.85" font-family="Arial" font-size="14.00">Merge request to a</text>
<text text-anchor="middle" x="220" y="-1039.85" font-family="Arial" font-size="14.00">&#39;protected branch&#39; or</text>
<text text-anchor="middle" x="220" y="-1024.85" font-family="Arial" font-size="14.00">Foundation for</text>
<text text-anchor="middle" x="220" y="-1009.85" font-family="Arial" font-size="14.00">Public Code</text>
<text text-anchor="middle" x="220" y="-994.85" font-family="Arial" font-size="14.00">managed codebase</text>
</g>
<!-- contrib_submit -->
<g id="node2" class="node">
<title>contrib_submit</title>
<ellipse fill="none" stroke="black" cx="220" cy="-923.18" rx="94.51" ry="26.74"/>
<text text-anchor="middle" x="220" y="-926.98" font-family="Arial" font-size="14.00">Contributor submits</text>
<text text-anchor="middle" x="220" y="-911.98" font-family="Arial" font-size="14.00">a merge request</text>
</g>
<!-- contrib_context&#45;&gt;contrib_submit -->
<g id="edge1" class="edge">
<title>contrib_context&#45;&gt;contrib_submit</title>
<path fill="none" stroke="black" stroke-dasharray="5,2" d="M220,-986.99C220,-974.66 220,-961.44 220,-950.33"/>
</g>
<!-- contrib_submit_join -->
<g id="node18" class="node">
<title>contrib_submit_join</title>
<polygon fill="none" stroke="black" points="422,-793.22 395,-775.22 422,-757.22 449,-775.22 422,-793.22"/>
<text text-anchor="middle" x="422" y="-771.52" font-family="Arial" font-size="14.00">+</text>
</g>
<!-- contrib_submit&#45;&gt;contrib_submit_join -->
<g id="edge2" class="edge">
<title>contrib_submit&#45;&gt;contrib_submit_join</title>
<path fill="none" stroke="black" d="M253.81,-897.75C295.88,-867.35 366.4,-816.4 401.23,-791.23"/>
<polygon fill="black" stroke="black" points="403.62,-793.82 409.67,-785.13 399.52,-788.15 403.62,-793.82"/>
</g>
<!-- contrib_fix -->
<g id="node3" class="node">
<title>contrib_fix</title>
<ellipse fill="none" stroke="black" cx="487" cy="-1028.55" rx="155.63" ry="26.74"/>
<text text-anchor="middle" x="487" y="-1032.35" font-family="Arial" font-size="14.00">Make new commits to the code to</text>
<text text-anchor="middle" x="487" y="-1017.35" font-family="Arial" font-size="14.00">resolve review and audit issues</text>
</g>
<!-- contrib_update -->
<g id="node4" class="node">
<title>contrib_update</title>
<ellipse fill="none" stroke="black" cx="463" cy="-923.18" rx="47.25" ry="26.74"/>
<text text-anchor="middle" x="463" y="-926.98" font-family="Arial" font-size="14.00">Request</text>
<text text-anchor="middle" x="463" y="-911.98" font-family="Arial" font-size="14.00">updated</text>
</g>
<!-- contrib_fix&#45;&gt;contrib_update -->
<g id="edge5" class="edge">
<title>contrib_fix&#45;&gt;contrib_update</title>
<path fill="none" stroke="black" d="M481.48,-1001.44C479.23,-991.03 476.56,-978.96 474,-968.05 473.38,-965.41 472.73,-962.69 472.07,-959.96"/>
<polygon fill="black" stroke="black" points="475.44,-959 469.65,-950.13 468.64,-960.67 475.44,-959"/>
</g>
<!-- contrib_update&#45;&gt;contrib_submit_join -->
<g id="edge6" class="edge">
<title>contrib_update&#45;&gt;contrib_submit_join</title>
<path fill="none" stroke="black" d="M455.76,-896.42C448.13,-869.25 436.21,-826.79 428.76,-800.28"/>
<polygon fill="black" stroke="black" points="432.13,-799.33 426.05,-790.65 425.39,-801.22 432.13,-799.33"/>
</g>
<!-- audit_assign -->
<g id="node5" class="node">
<title>audit_assign</title>
<ellipse fill="none" stroke="black" cx="788" cy="-775.22" rx="108.79" ry="48.17"/>
<text text-anchor="middle" x="788" y="-794.02" font-family="Arial" font-size="14.00">Auditor team member</text>
<text text-anchor="middle" x="788" y="-779.02" font-family="Arial" font-size="14.00">assigns merge request</text>
<text text-anchor="middle" x="788" y="-764.02" font-family="Arial" font-size="14.00">to themselves within</text>
<text text-anchor="middle" x="788" y="-749.02" font-family="Arial" font-size="14.00">2 business days</text>
</g>
<!-- audit_check -->
<g id="node6" class="node">
<title>audit_check</title>
<ellipse fill="none" stroke="black" cx="799" cy="-606.06" rx="124.4" ry="48.17"/>
<text text-anchor="middle" x="799" y="-624.86" font-family="Arial" font-size="14.00">Check changes for</text>
<text text-anchor="middle" x="799" y="-609.86" font-family="Arial" font-size="14.00">codebase governance and</text>
<text text-anchor="middle" x="799" y="-594.86" font-family="Arial" font-size="14.00">Standard for Public Code</text>
<text text-anchor="middle" x="799" y="-579.86" font-family="Arial" font-size="14.00">compliance</text>
</g>
<!-- audit_assign&#45;&gt;audit_check -->
<g id="edge7" class="edge">
<title>audit_assign&#45;&gt;audit_check</title>
<path fill="none" stroke="black" d="M791.12,-726.77C792.4,-707.36 793.89,-684.74 795.23,-664.42"/>
<polygon fill="black" stroke="black" points="798.72,-664.55 795.89,-654.34 791.74,-664.09 798.72,-664.55"/>
</g>
<!-- audit_check_branch -->
<g id="node19" class="node">
<title>audit_check_branch</title>
<polygon fill="none" stroke="black" points="799,-520.97 772,-502.97 799,-484.97 826,-502.97 799,-520.97"/>
<text text-anchor="middle" x="799" y="-499.27" font-family="Arial" font-size="14.00">X</text>
</g>
<!-- audit_check&#45;&gt;audit_check_branch -->
<g id="edge8" class="edge">
<title>audit_check&#45;&gt;audit_check_branch</title>
<path fill="none" stroke="black" d="M799,-557.77C799,-548.62 799,-539.33 799,-531.11"/>
<polygon fill="black" stroke="black" points="802.5,-531.01 799,-521.01 795.5,-531.01 802.5,-531.01"/>
</g>
<!-- audit_check_fail -->
<g id="node7" class="node">
<title>audit_check_fail</title>
<ellipse fill="none" stroke="black" cx="979" cy="-381.5" rx="109.7" ry="37.45"/>
<text text-anchor="middle" x="979" y="-392.8" font-family="Arial" font-size="14.00">Post what needs to be</text>
<text text-anchor="middle" x="979" y="-377.8" font-family="Arial" font-size="14.00">done so the contributor</text>
<text text-anchor="middle" x="979" y="-362.8" font-family="Arial" font-size="14.00">can make the changes</text>
</g>
<!-- audit_changes_requested -->
<g id="node9" class="node">
<title>audit_changes_requested</title>
<ellipse fill="none" stroke="black" cx="979" cy="-261.06" rx="98.99" ry="26.74"/>
<text text-anchor="middle" x="979" y="-264.86" font-family="Arial" font-size="14.00">Set request status to</text>
<text text-anchor="middle" x="979" y="-249.86" font-family="Arial" font-size="14.00">&#39;Changes requested&#39;</text>
</g>
<!-- audit_check_fail&#45;&gt;audit_changes_requested -->
<g id="edge12" class="edge">
<title>audit_check_fail&#45;&gt;audit_changes_requested</title>
<path fill="none" stroke="black" d="M979,-343.99C979,-329.45 979,-312.74 979,-298.23"/>
<polygon fill="black" stroke="black" points="982.5,-298.11 979,-288.11 975.5,-298.11 982.5,-298.11"/>
</g>
<!-- maint_check_fail -->
<g id="node8" class="node">
<title>maint_check_fail</title>
<ellipse fill="none" stroke="black" cx="541" cy="-381.5" rx="109.7" ry="37.45"/>
<text text-anchor="middle" x="541" y="-392.8" font-family="Arial" font-size="14.00">Post what needs to be</text>
<text text-anchor="middle" x="541" y="-377.8" font-family="Arial" font-size="14.00">done so the contributor</text>
<text text-anchor="middle" x="541" y="-362.8" font-family="Arial" font-size="14.00">can make the changes</text>
</g>
<!-- maint_changes_requested -->
<g id="node10" class="node">
<title>maint_changes_requested</title>
<ellipse fill="none" stroke="black" cx="549" cy="-261.06" rx="98.99" ry="26.74"/>
<text text-anchor="middle" x="549" y="-264.86" font-family="Arial" font-size="14.00">Set request status to</text>
<text text-anchor="middle" x="549" y="-249.86" font-family="Arial" font-size="14.00">&#39;Changes requested&#39;</text>
</g>
<!-- maint_check_fail&#45;&gt;maint_changes_requested -->
<g id="edge22" class="edge">
<title>maint_check_fail&#45;&gt;maint_changes_requested</title>
<path fill="none" stroke="black" d="M543.47,-343.99C544.45,-329.45 545.58,-312.74 546.56,-298.23"/>
<polygon fill="black" stroke="black" points="550.06,-298.32 547.24,-288.11 543.07,-297.85 550.06,-298.32"/>
</g>
<!-- audit_changes_req_join -->
<g id="node20" class="node">
<title>audit_changes_req_join</title>
<polygon fill="none" stroke="black" points="979,-178.1 952,-160.1 979,-142.1 1006,-160.1 979,-178.1"/>
<text text-anchor="middle" x="979" y="-156.4" font-family="Arial" font-size="14.00">O</text>
</g>
<!-- audit_changes_requested&#45;&gt;audit_changes_req_join -->
<g id="edge13" class="edge">
<title>audit_changes_requested&#45;&gt;audit_changes_req_join</title>
<path fill="none" stroke="black" d="M979,-234.06C979,-220 979,-202.65 979,-188.4"/>
<polygon fill="black" stroke="black" points="982.5,-188.21 979,-178.21 975.5,-188.21 982.5,-188.21"/>
</g>
<!-- maint_changes_requested&#45;&gt;audit_changes_req_join -->
<g id="edge23" class="edge">
<title>maint_changes_requested&#45;&gt;audit_changes_req_join</title>
<path fill="none" stroke="black" d="M599.02,-237.74C618.66,-229.67 641.59,-221.08 663,-215.1 764.43,-186.76 888.56,-170.81 946.42,-164.42"/>
<polygon fill="black" stroke="black" points="946.86,-167.89 956.43,-163.33 946.11,-160.93 946.86,-167.89"/>
</g>
<!-- audit_check_pass -->
<g id="node11" class="node">
<title>audit_check_pass</title>
<ellipse fill="none" stroke="black" cx="763" cy="-381.5" rx="88.28" ry="37.45"/>
<text text-anchor="middle" x="763" y="-392.8" font-family="Arial" font-size="14.00">Set request status</text>
<text text-anchor="middle" x="763" y="-377.8" font-family="Arial" font-size="14.00">to &#39;approved&#39; and</text>
<text text-anchor="middle" x="763" y="-362.8" font-family="Arial" font-size="14.00">post positively</text>
</g>
<!-- maint_pass_join -->
<g id="node22" class="node">
<title>maint_pass_join</title>
<polygon fill="none" stroke="black" points="384,-279.06 357,-261.06 384,-243.06 411,-261.06 384,-279.06"/>
<text text-anchor="middle" x="384" y="-257.36" font-family="Arial" font-size="14.00">+</text>
</g>
<!-- audit_check_pass&#45;&gt;maint_pass_join -->
<g id="edge11" class="edge">
<title>audit_check_pass&#45;&gt;maint_pass_join</title>
<path fill="none" stroke="black" d="M699.54,-355.36C687.53,-351.17 674.97,-347.17 663,-344.02 566.27,-318.55 532.48,-347.49 441,-307.02 426.3,-300.52 412.11,-289.34 401.56,-279.76"/>
<polygon fill="black" stroke="black" points="403.92,-277.17 394.25,-272.84 399.11,-282.26 403.92,-277.17"/>
</g>
<!-- maint_check_pass -->
<g id="node12" class="node">
<title>maint_check_pass</title>
<ellipse fill="none" stroke="black" cx="325" cy="-381.5" rx="88.28" ry="37.45"/>
<text text-anchor="middle" x="325" y="-392.8" font-family="Arial" font-size="14.00">Set request status</text>
<text text-anchor="middle" x="325" y="-377.8" font-family="Arial" font-size="14.00">to &#39;approved&#39; and</text>
<text text-anchor="middle" x="325" y="-362.8" font-family="Arial" font-size="14.00">post positively</text>
</g>
<!-- maint_check_pass&#45;&gt;maint_pass_join -->
<g id="edge19" class="edge">
<title>maint_check_pass&#45;&gt;maint_pass_join</title>
<path fill="none" stroke="black" d="M342.86,-344.64C352.67,-324.95 364.53,-301.15 372.99,-284.17"/>
<polygon fill="black" stroke="black" points="376.21,-285.55 377.53,-275.04 369.94,-282.43 376.21,-285.55"/>
</g>
<!-- maint_check -->
<g id="node13" class="node">
<title>maint_check</title>
<ellipse fill="none" stroke="black" cx="394" cy="-606.06" rx="127.97" ry="48.17"/>
<text text-anchor="middle" x="394" y="-624.86" font-family="Arial" font-size="14.00">Maintainer checks changes</text>
<text text-anchor="middle" x="394" y="-609.86" font-family="Arial" font-size="14.00">for usefulness,</text>
<text text-anchor="middle" x="394" y="-594.86" font-family="Arial" font-size="14.00">value added and</text>
<text text-anchor="middle" x="394" y="-579.86" font-family="Arial" font-size="14.00">&#39;mergeability&#39;</text>
</g>
<!-- maint_check_branch -->
<g id="node21" class="node">
<title>maint_check_branch</title>
<polygon fill="none" stroke="black" points="334,-520.97 307,-502.97 334,-484.97 361,-502.97 334,-520.97"/>
<text text-anchor="middle" x="334" y="-499.27" font-family="Arial" font-size="14.00">X</text>
</g>
<!-- maint_check&#45;&gt;maint_check_branch -->
<g id="edge15" class="edge">
<title>maint_check&#45;&gt;maint_check_branch</title>
<path fill="none" stroke="black" d="M366.63,-558.95C359.61,-547.11 352.39,-534.95 346.53,-525.08"/>
<polygon fill="black" stroke="black" points="349.5,-523.22 341.38,-516.41 343.48,-526.8 349.5,-523.22"/>
</g>
<!-- maint_merge -->
<g id="node14" class="node">
<title>maint_merge</title>
<ellipse fill="none" stroke="black" cx="384" cy="-160.1" rx="36.29" ry="18"/>
<text text-anchor="middle" x="384" y="-156.4" font-family="Arial" font-size="14.00">Merge</text>
</g>
<!-- maint_request_merged -->
<g id="node17" class="node">
<title>maint_request_merged</title>
<ellipse fill="none" stroke="black" stroke-width="2" cx="384" cy="-60.55" rx="44.6" ry="44.6"/>
<text text-anchor="middle" x="384" y="-71.85" font-family="Arial" font-size="14.00">Merge</text>
<text text-anchor="middle" x="384" y="-56.85" font-family="Arial" font-size="14.00">request</text>
<text text-anchor="middle" x="384" y="-41.85" font-family="Arial" font-size="14.00">merged</text>
</g>
<!-- maint_merge&#45;&gt;maint_request_merged -->
<g id="edge21" class="edge">
<title>maint_merge&#45;&gt;maint_request_merged</title>
<path fill="none" stroke="black" d="M384,-141.66C384,-134.17 384,-124.98 384,-115.52"/>
<polygon fill="black" stroke="black" points="387.5,-115.22 384,-105.22 380.5,-115.22 387.5,-115.22"/>
</g>
<!-- maint_check_reject -->
<g id="node15" class="node">
<title>maint_check_reject</title>
<ellipse fill="none" stroke="black" cx="117" cy="-381.5" rx="101.23" ry="37.45"/>
<text text-anchor="middle" x="117" y="-392.8" font-family="Arial" font-size="14.00">Post why the request</text>
<text text-anchor="middle" x="117" y="-377.8" font-family="Arial" font-size="14.00">cannot be merged</text>
<text text-anchor="middle" x="117" y="-362.8" font-family="Arial" font-size="14.00">and close it</text>
</g>
<!-- maint_request_rejected -->
<g id="node16" class="node">
<title>maint_request_rejected</title>
<ellipse fill="none" stroke="black" stroke-width="2" cx="117" cy="-261.06" rx="45.92" ry="45.92"/>
<text text-anchor="middle" x="117" y="-272.36" font-family="Arial" font-size="14.00">Merge</text>
<text text-anchor="middle" x="117" y="-257.36" font-family="Arial" font-size="14.00">request</text>
<text text-anchor="middle" x="117" y="-242.36" font-family="Arial" font-size="14.00">rejected</text>
</g>
<!-- maint_check_reject&#45;&gt;maint_request_rejected -->
<g id="edge24" class="edge">
<title>maint_check_reject&#45;&gt;maint_request_rejected</title>
<path fill="none" stroke="black" d="M117,-343.99C117,-335.6 117,-326.49 117,-317.49"/>
<polygon fill="black" stroke="black" points="120.5,-317.43 117,-307.43 113.5,-317.43 120.5,-317.43"/>
</g>
<!-- contrib_submit_join&#45;&gt;audit_assign -->
<g id="edge3" class="edge">
<title>contrib_submit_join&#45;&gt;audit_assign</title>
<path fill="none" stroke="black" d="M449.16,-775.22C522.27,-775.22 595.38,-775.22 668.49,-775.22"/>
<polygon fill="black" stroke="black" points="668.8,-778.72 678.8,-775.22 668.8,-771.72 668.8,-778.72"/>
</g>
<!-- contrib_submit_join&#45;&gt;maint_check -->
<g id="edge4" class="edge">
<title>contrib_submit_join&#45;&gt;maint_check</title>
<path fill="none" stroke="black" d="M419.42,-758.8C415.85,-737.48 409.21,-697.87 403.61,-664.46"/>
<polygon fill="black" stroke="black" points="407.02,-663.6 401.92,-654.32 400.12,-664.76 407.02,-663.6"/>
</g>
<!-- audit_check_branch&#45;&gt;audit_check_fail -->
<g id="edge10" class="edge">
<title>audit_check_branch&#45;&gt;audit_check_fail</title>
<path fill="none" stroke="black" d="M812.18,-493.73C823.36,-486.7 839.8,-476.28 854,-466.97 876.62,-452.13 901.34,-435.52 922.78,-420.97"/>
<polygon fill="black" stroke="black" points="924.82,-423.81 931.13,-415.3 920.89,-418.02 924.82,-423.81"/>
<text text-anchor="middle" x="940" y="-448.27" font-family="Arial" font-size="14.00">Not compliant</text>
</g>
<!-- audit_check_branch&#45;&gt;audit_check_pass -->
<g id="edge9" class="edge">
<title>audit_check_branch&#45;&gt;audit_check_pass</title>
<path fill="none" stroke="black" d="M794.73,-487.8C790.34,-473.23 783.27,-449.76 776.91,-428.67"/>
<polygon fill="black" stroke="black" points="780.2,-427.44 773.96,-418.88 773.5,-429.46 780.2,-427.44"/>
<text text-anchor="middle" x="819" y="-448.27" font-family="Arial" font-size="14.00">Compliant</text>
</g>
<!-- audit_changes_req_join&#45;&gt;contrib_fix -->
<g id="edge14" class="edge">
<title>audit_changes_req_join&#45;&gt;contrib_fix</title>
<path fill="none" stroke="black" d="M998.19,-165.33C1036.11,-174.96 1117,-202.27 1117,-260.06 1117,-924.18 1117,-924.18 1117,-924.18 1117,-972.3 827.03,-1002.71 640.54,-1017.28"/>
<polygon fill="black" stroke="black" points="640.05,-1013.81 630.35,-1018.07 640.59,-1020.79 640.05,-1013.81"/>
</g>
<!-- maint_check_branch&#45;&gt;maint_check_fail -->
<g id="edge17" class="edge">
<title>maint_check_branch&#45;&gt;maint_check_fail</title>
<path fill="none" stroke="black" d="M348.78,-494.58C362.45,-487.67 383.27,-476.94 401,-466.97 427.34,-452.17 455.97,-435.07 480.44,-420.15"/>
<polygon fill="black" stroke="black" points="482.55,-422.96 489.26,-414.76 478.9,-416.99 482.55,-422.96"/>
<text text-anchor="middle" x="477" y="-455.77" font-family="Arial" font-size="14.00">Needs</text>
<text text-anchor="middle" x="477" y="-440.77" font-family="Arial" font-size="14.00">changes</text>
</g>
<!-- maint_check_branch&#45;&gt;maint_check_pass -->
<g id="edge16" class="edge">
<title>maint_check_branch&#45;&gt;maint_check_pass</title>
<path fill="none" stroke="black" d="M332.75,-485.36C331.65,-470.84 330.01,-449.03 328.52,-429.23"/>
<polygon fill="black" stroke="black" points="332,-428.81 327.76,-419.1 325.02,-429.34 332,-428.81"/>
<text text-anchor="middle" x="364" y="-455.77" font-family="Arial" font-size="14.00">Can</text>
<text text-anchor="middle" x="364" y="-440.77" font-family="Arial" font-size="14.00">be merged</text>
</g>
<!-- maint_check_branch&#45;&gt;maint_check_reject -->
<g id="edge18" class="edge">
<title>maint_check_branch&#45;&gt;maint_check_reject</title>
<path fill="none" stroke="black" d="M318.26,-495.18C302.93,-488.43 279.07,-477.59 259,-466.97 231.22,-452.27 201.2,-434.68 175.95,-419.36"/>
<polygon fill="black" stroke="black" points="177.59,-416.26 167.23,-414.05 173.95,-422.24 177.59,-416.26"/>
<text text-anchor="middle" x="292" y="-455.77" font-family="Arial" font-size="14.00">Cannot</text>
<text text-anchor="middle" x="292" y="-440.77" font-family="Arial" font-size="14.00">be merged</text>
</g>
<!-- maint_pass_join&#45;&gt;maint_merge -->
<g id="edge20" class="edge">
<title>maint_pass_join&#45;&gt;maint_merge</title>
<path fill="none" stroke="black" d="M384,-242.82C384,-227.78 384,-205.69 384,-188.27"/>
<polygon fill="black" stroke="black" points="387.5,-188.14 384,-178.14 380.5,-188.14 387.5,-188.14"/>
</g>
</g>
</svg>
