<?xml version="1.0" encoding="UTF-8" standalone="yes"?>
<!-- Created with qrencode 4.1.1 (https://fukuchi.org/works/qrencode/index.html) -->
<svg width="4.34cm" height="4.34cm" viewBox="0 0 41 41" preserveAspectRatio="none" version="1.1" xmlns="http://www.w3.org/2000/svg">
	<g id="QRcode">
		<rect x="0" y="0" width="41" height="41" fill="#ffffff"/>
		<g id="Pattern" transform="translate(4,4)">
			<rect x="0" y="0" width="1" height="1" fill="#000000"/>
			<rect x="1" y="0" width="1" height="1" fill="#000000"/>
			<rect x="2" y="0" width="1" height="1" fill="#000000"/>
			<rect x="3" y="0" width="1" height="1" fill="#000000"/>
			<rect x="4" y="0" width="1" height="1" fill="#000000"/>
			<rect x="5" y="0" width="1" height="1" fill="#000000"/>
			<rect x="6" y="0" width="1" height="1" fill="#000000"/>
			<rect x="10" y="0" width="1" height="1" fill="#000000"/>
			<rect x="12" y="0" width="1" height="1" fill="#000000"/>
			<rect x="13" y="0" width="1" height="1" fill="#000000"/>
			<rect x="14" y="0" width="1" height="1" fill="#000000"/>
			<rect x="15" y="0" width="1" height="1" fill="#000000"/>
			<rect x="18" y="0" width="1" height="1" fill="#000000"/>
			<rect x="19" y="0" width="1" height="1" fill="#000000"/>
			<rect x="20" y="0" width="1" height="1" fill="#000000"/>
			<rect x="23" y="0" width="1" height="1" fill="#000000"/>
			<rect x="26" y="0" width="1" height="1" fill="#000000"/>
			<rect x="27" y="0" width="1" height="1" fill="#000000"/>
			<rect x="28" y="0" width="1" height="1" fill="#000000"/>
			<rect x="29" y="0" width="1" height="1" fill="#000000"/>
			<rect x="30" y="0" width="1" height="1" fill="#000000"/>
			<rect x="31" y="0" width="1" height="1" fill="#000000"/>
			<rect x="32" y="0" width="1" height="1" fill="#000000"/>
			<rect x="0" y="1" width="1" height="1" fill="#000000"/>
			<rect x="6" y="1" width="1" height="1" fill="#000000"/>
			<rect x="8" y="1" width="1" height="1" fill="#000000"/>
			<rect x="10" y="1" width="1" height="1" fill="#000000"/>
			<rect x="13" y="1" width="1" height="1" fill="#000000"/>
			<rect x="14" y="1" width="1" height="1" fill="#000000"/>
			<rect x="15" y="1" width="1" height="1" fill="#000000"/>
			<rect x="16" y="1" width="1" height="1" fill="#000000"/>
			<rect x="18" y="1" width="1" height="1" fill="#000000"/>
			<rect x="20" y="1" width="1" height="1" fill="#000000"/>
			<rect x="26" y="1" width="1" height="1" fill="#000000"/>
			<rect x="32" y="1" width="1" height="1" fill="#000000"/>
			<rect x="0" y="2" width="1" height="1" fill="#000000"/>
			<rect x="2" y="2" width="1" height="1" fill="#000000"/>
			<rect x="3" y="2" width="1" height="1" fill="#000000"/>
			<rect x="4" y="2" width="1" height="1" fill="#000000"/>
			<rect x="6" y="2" width="1" height="1" fill="#000000"/>
			<rect x="12" y="2" width="1" height="1" fill="#000000"/>
			<rect x="13" y="2" width="1" height="1" fill="#000000"/>
			<rect x="15" y="2" width="1" height="1" fill="#000000"/>
			<rect x="20" y="2" width="1" height="1" fill="#000000"/>
			<rect x="21" y="2" width="1" height="1" fill="#000000"/>
			<rect x="22" y="2" width="1" height="1" fill="#000000"/>
			<rect x="24" y="2" width="1" height="1" fill="#000000"/>
			<rect x="26" y="2" width="1" height="1" fill="#000000"/>
			<rect x="28" y="2" width="1" height="1" fill="#000000"/>
			<rect x="29" y="2" width="1" height="1" fill="#000000"/>
			<rect x="30" y="2" width="1" height="1" fill="#000000"/>
			<rect x="32" y="2" width="1" height="1" fill="#000000"/>
			<rect x="0" y="3" width="1" height="1" fill="#000000"/>
			<rect x="2" y="3" width="1" height="1" fill="#000000"/>
			<rect x="3" y="3" width="1" height="1" fill="#000000"/>
			<rect x="4" y="3" width="1" height="1" fill="#000000"/>
			<rect x="6" y="3" width="1" height="1" fill="#000000"/>
			<rect x="8" y="3" width="1" height="1" fill="#000000"/>
			<rect x="9" y="3" width="1" height="1" fill="#000000"/>
			<rect x="10" y="3" width="1" height="1" fill="#000000"/>
			<rect x="12" y="3" width="1" height="1" fill="#000000"/>
			<rect x="14" y="3" width="1" height="1" fill="#000000"/>
			<rect x="15" y="3" width="1" height="1" fill="#000000"/>
			<rect x="17" y="3" width="1" height="1" fill="#000000"/>
			<rect x="22" y="3" width="1" height="1" fill="#000000"/>
			<rect x="23" y="3" width="1" height="1" fill="#000000"/>
			<rect x="24" y="3" width="1" height="1" fill="#000000"/>
			<rect x="26" y="3" width="1" height="1" fill="#000000"/>
			<rect x="28" y="3" width="1" height="1" fill="#000000"/>
			<rect x="29" y="3" width="1" height="1" fill="#000000"/>
			<rect x="30" y="3" width="1" height="1" fill="#000000"/>
			<rect x="32" y="3" width="1" height="1" fill="#000000"/>
			<rect x="0" y="4" width="1" height="1" fill="#000000"/>
			<rect x="2" y="4" width="1" height="1" fill="#000000"/>
			<rect x="3" y="4" width="1" height="1" fill="#000000"/>
			<rect x="4" y="4" width="1" height="1" fill="#000000"/>
			<rect x="6" y="4" width="1" height="1" fill="#000000"/>
			<rect x="9" y="4" width="1" height="1" fill="#000000"/>
			<rect x="15" y="4" width="1" height="1" fill="#000000"/>
			<rect x="16" y="4" width="1" height="1" fill="#000000"/>
			<rect x="19" y="4" width="1" height="1" fill="#000000"/>
			<rect x="20" y="4" width="1" height="1" fill="#000000"/>
			<rect x="23" y="4" width="1" height="1" fill="#000000"/>
			<rect x="26" y="4" width="1" height="1" fill="#000000"/>
			<rect x="28" y="4" width="1" height="1" fill="#000000"/>
			<rect x="29" y="4" width="1" height="1" fill="#000000"/>
			<rect x="30" y="4" width="1" height="1" fill="#000000"/>
			<rect x="32" y="4" width="1" height="1" fill="#000000"/>
			<rect x="0" y="5" width="1" height="1" fill="#000000"/>
			<rect x="6" y="5" width="1" height="1" fill="#000000"/>
			<rect x="8" y="5" width="1" height="1" fill="#000000"/>
			<rect x="9" y="5" width="1" height="1" fill="#000000"/>
			<rect x="11" y="5" width="1" height="1" fill="#000000"/>
			<rect x="12" y="5" width="1" height="1" fill="#000000"/>
			<rect x="17" y="5" width="1" height="1" fill="#000000"/>
			<rect x="18" y="5" width="1" height="1" fill="#000000"/>
			<rect x="21" y="5" width="1" height="1" fill="#000000"/>
			<rect x="26" y="5" width="1" height="1" fill="#000000"/>
			<rect x="32" y="5" width="1" height="1" fill="#000000"/>
			<rect x="0" y="6" width="1" height="1" fill="#000000"/>
			<rect x="1" y="6" width="1" height="1" fill="#000000"/>
			<rect x="2" y="6" width="1" height="1" fill="#000000"/>
			<rect x="3" y="6" width="1" height="1" fill="#000000"/>
			<rect x="4" y="6" width="1" height="1" fill="#000000"/>
			<rect x="5" y="6" width="1" height="1" fill="#000000"/>
			<rect x="6" y="6" width="1" height="1" fill="#000000"/>
			<rect x="8" y="6" width="1" height="1" fill="#000000"/>
			<rect x="10" y="6" width="1" height="1" fill="#000000"/>
			<rect x="12" y="6" width="1" height="1" fill="#000000"/>
			<rect x="14" y="6" width="1" height="1" fill="#000000"/>
			<rect x="16" y="6" width="1" height="1" fill="#000000"/>
			<rect x="18" y="6" width="1" height="1" fill="#000000"/>
			<rect x="20" y="6" width="1" height="1" fill="#000000"/>
			<rect x="22" y="6" width="1" height="1" fill="#000000"/>
			<rect x="24" y="6" width="1" height="1" fill="#000000"/>
			<rect x="26" y="6" width="1" height="1" fill="#000000"/>
			<rect x="27" y="6" width="1" height="1" fill="#000000"/>
			<rect x="28" y="6" width="1" height="1" fill="#000000"/>
			<rect x="29" y="6" width="1" height="1" fill="#000000"/>
			<rect x="30" y="6" width="1" height="1" fill="#000000"/>
			<rect x="31" y="6" width="1" height="1" fill="#000000"/>
			<rect x="32" y="6" width="1" height="1" fill="#000000"/>
			<rect x="9" y="7" width="1" height="1" fill="#000000"/>
			<rect x="10" y="7" width="1" height="1" fill="#000000"/>
			<rect x="11" y="7" width="1" height="1" fill="#000000"/>
			<rect x="14" y="7" width="1" height="1" fill="#000000"/>
			<rect x="16" y="7" width="1" height="1" fill="#000000"/>
			<rect x="20" y="7" width="1" height="1" fill="#000000"/>
			<rect x="21" y="7" width="1" height="1" fill="#000000"/>
			<rect x="22" y="7" width="1" height="1" fill="#000000"/>
			<rect x="23" y="7" width="1" height="1" fill="#000000"/>
			<rect x="0" y="8" width="1" height="1" fill="#000000"/>
			<rect x="1" y="8" width="1" height="1" fill="#000000"/>
			<rect x="2" y="8" width="1" height="1" fill="#000000"/>
			<rect x="3" y="8" width="1" height="1" fill="#000000"/>
			<rect x="4" y="8" width="1" height="1" fill="#000000"/>
			<rect x="6" y="8" width="1" height="1" fill="#000000"/>
			<rect x="7" y="8" width="1" height="1" fill="#000000"/>
			<rect x="8" y="8" width="1" height="1" fill="#000000"/>
			<rect x="9" y="8" width="1" height="1" fill="#000000"/>
			<rect x="11" y="8" width="1" height="1" fill="#000000"/>
			<rect x="17" y="8" width="1" height="1" fill="#000000"/>
			<rect x="19" y="8" width="1" height="1" fill="#000000"/>
			<rect x="25" y="8" width="1" height="1" fill="#000000"/>
			<rect x="27" y="8" width="1" height="1" fill="#000000"/>
			<rect x="29" y="8" width="1" height="1" fill="#000000"/>
			<rect x="31" y="8" width="1" height="1" fill="#000000"/>
			<rect x="0" y="9" width="1" height="1" fill="#000000"/>
			<rect x="1" y="9" width="1" height="1" fill="#000000"/>
			<rect x="2" y="9" width="1" height="1" fill="#000000"/>
			<rect x="7" y="9" width="1" height="1" fill="#000000"/>
			<rect x="10" y="9" width="1" height="1" fill="#000000"/>
			<rect x="12" y="9" width="1" height="1" fill="#000000"/>
			<rect x="13" y="9" width="1" height="1" fill="#000000"/>
			<rect x="14" y="9" width="1" height="1" fill="#000000"/>
			<rect x="15" y="9" width="1" height="1" fill="#000000"/>
			<rect x="18" y="9" width="1" height="1" fill="#000000"/>
			<rect x="19" y="9" width="1" height="1" fill="#000000"/>
			<rect x="20" y="9" width="1" height="1" fill="#000000"/>
			<rect x="23" y="9" width="1" height="1" fill="#000000"/>
			<rect x="25" y="9" width="1" height="1" fill="#000000"/>
			<rect x="26" y="9" width="1" height="1" fill="#000000"/>
			<rect x="30" y="9" width="1" height="1" fill="#000000"/>
			<rect x="31" y="9" width="1" height="1" fill="#000000"/>
			<rect x="32" y="9" width="1" height="1" fill="#000000"/>
			<rect x="0" y="10" width="1" height="1" fill="#000000"/>
			<rect x="4" y="10" width="1" height="1" fill="#000000"/>
			<rect x="6" y="10" width="1" height="1" fill="#000000"/>
			<rect x="7" y="10" width="1" height="1" fill="#000000"/>
			<rect x="8" y="10" width="1" height="1" fill="#000000"/>
			<rect x="10" y="10" width="1" height="1" fill="#000000"/>
			<rect x="13" y="10" width="1" height="1" fill="#000000"/>
			<rect x="14" y="10" width="1" height="1" fill="#000000"/>
			<rect x="15" y="10" width="1" height="1" fill="#000000"/>
			<rect x="16" y="10" width="1" height="1" fill="#000000"/>
			<rect x="20" y="10" width="1" height="1" fill="#000000"/>
			<rect x="22" y="10" width="1" height="1" fill="#000000"/>
			<rect x="29" y="10" width="1" height="1" fill="#000000"/>
			<rect x="31" y="10" width="1" height="1" fill="#000000"/>
			<rect x="0" y="11" width="1" height="1" fill="#000000"/>
			<rect x="3" y="11" width="1" height="1" fill="#000000"/>
			<rect x="5" y="11" width="1" height="1" fill="#000000"/>
			<rect x="8" y="11" width="1" height="1" fill="#000000"/>
			<rect x="12" y="11" width="1" height="1" fill="#000000"/>
			<rect x="13" y="11" width="1" height="1" fill="#000000"/>
			<rect x="15" y="11" width="1" height="1" fill="#000000"/>
			<rect x="16" y="11" width="1" height="1" fill="#000000"/>
			<rect x="20" y="11" width="1" height="1" fill="#000000"/>
			<rect x="21" y="11" width="1" height="1" fill="#000000"/>
			<rect x="22" y="11" width="1" height="1" fill="#000000"/>
			<rect x="23" y="11" width="1" height="1" fill="#000000"/>
			<rect x="27" y="11" width="1" height="1" fill="#000000"/>
			<rect x="28" y="11" width="1" height="1" fill="#000000"/>
			<rect x="30" y="11" width="1" height="1" fill="#000000"/>
			<rect x="0" y="12" width="1" height="1" fill="#000000"/>
			<rect x="3" y="12" width="1" height="1" fill="#000000"/>
			<rect x="4" y="12" width="1" height="1" fill="#000000"/>
			<rect x="6" y="12" width="1" height="1" fill="#000000"/>
			<rect x="9" y="12" width="1" height="1" fill="#000000"/>
			<rect x="10" y="12" width="1" height="1" fill="#000000"/>
			<rect x="12" y="12" width="1" height="1" fill="#000000"/>
			<rect x="14" y="12" width="1" height="1" fill="#000000"/>
			<rect x="15" y="12" width="1" height="1" fill="#000000"/>
			<rect x="21" y="12" width="1" height="1" fill="#000000"/>
			<rect x="22" y="12" width="1" height="1" fill="#000000"/>
			<rect x="23" y="12" width="1" height="1" fill="#000000"/>
			<rect x="24" y="12" width="1" height="1" fill="#000000"/>
			<rect x="25" y="12" width="1" height="1" fill="#000000"/>
			<rect x="27" y="12" width="1" height="1" fill="#000000"/>
			<rect x="28" y="12" width="1" height="1" fill="#000000"/>
			<rect x="29" y="12" width="1" height="1" fill="#000000"/>
			<rect x="2" y="13" width="1" height="1" fill="#000000"/>
			<rect x="4" y="13" width="1" height="1" fill="#000000"/>
			<rect x="5" y="13" width="1" height="1" fill="#000000"/>
			<rect x="16" y="13" width="1" height="1" fill="#000000"/>
			<rect x="17" y="13" width="1" height="1" fill="#000000"/>
			<rect x="19" y="13" width="1" height="1" fill="#000000"/>
			<rect x="20" y="13" width="1" height="1" fill="#000000"/>
			<rect x="21" y="13" width="1" height="1" fill="#000000"/>
			<rect x="22" y="13" width="1" height="1" fill="#000000"/>
			<rect x="23" y="13" width="1" height="1" fill="#000000"/>
			<rect x="24" y="13" width="1" height="1" fill="#000000"/>
			<rect x="26" y="13" width="1" height="1" fill="#000000"/>
			<rect x="31" y="13" width="1" height="1" fill="#000000"/>
			<rect x="32" y="13" width="1" height="1" fill="#000000"/>
			<rect x="0" y="14" width="1" height="1" fill="#000000"/>
			<rect x="1" y="14" width="1" height="1" fill="#000000"/>
			<rect x="4" y="14" width="1" height="1" fill="#000000"/>
			<rect x="6" y="14" width="1" height="1" fill="#000000"/>
			<rect x="7" y="14" width="1" height="1" fill="#000000"/>
			<rect x="8" y="14" width="1" height="1" fill="#000000"/>
			<rect x="11" y="14" width="1" height="1" fill="#000000"/>
			<rect x="12" y="14" width="1" height="1" fill="#000000"/>
			<rect x="15" y="14" width="1" height="1" fill="#000000"/>
			<rect x="17" y="14" width="1" height="1" fill="#000000"/>
			<rect x="25" y="14" width="1" height="1" fill="#000000"/>
			<rect x="28" y="14" width="1" height="1" fill="#000000"/>
			<rect x="31" y="14" width="1" height="1" fill="#000000"/>
			<rect x="0" y="15" width="1" height="1" fill="#000000"/>
			<rect x="1" y="15" width="1" height="1" fill="#000000"/>
			<rect x="2" y="15" width="1" height="1" fill="#000000"/>
			<rect x="4" y="15" width="1" height="1" fill="#000000"/>
			<rect x="5" y="15" width="1" height="1" fill="#000000"/>
			<rect x="8" y="15" width="1" height="1" fill="#000000"/>
			<rect x="10" y="15" width="1" height="1" fill="#000000"/>
			<rect x="11" y="15" width="1" height="1" fill="#000000"/>
			<rect x="14" y="15" width="1" height="1" fill="#000000"/>
			<rect x="15" y="15" width="1" height="1" fill="#000000"/>
			<rect x="16" y="15" width="1" height="1" fill="#000000"/>
			<rect x="19" y="15" width="1" height="1" fill="#000000"/>
			<rect x="21" y="15" width="1" height="1" fill="#000000"/>
			<rect x="22" y="15" width="1" height="1" fill="#000000"/>
			<rect x="23" y="15" width="1" height="1" fill="#000000"/>
			<rect x="25" y="15" width="1" height="1" fill="#000000"/>
			<rect x="27" y="15" width="1" height="1" fill="#000000"/>
			<rect x="28" y="15" width="1" height="1" fill="#000000"/>
			<rect x="30" y="15" width="1" height="1" fill="#000000"/>
			<rect x="0" y="16" width="1" height="1" fill="#000000"/>
			<rect x="1" y="16" width="1" height="1" fill="#000000"/>
			<rect x="3" y="16" width="1" height="1" fill="#000000"/>
			<rect x="6" y="16" width="1" height="1" fill="#000000"/>
			<rect x="9" y="16" width="1" height="1" fill="#000000"/>
			<rect x="11" y="16" width="1" height="1" fill="#000000"/>
			<rect x="17" y="16" width="1" height="1" fill="#000000"/>
			<rect x="20" y="16" width="1" height="1" fill="#000000"/>
			<rect x="22" y="16" width="1" height="1" fill="#000000"/>
			<rect x="24" y="16" width="1" height="1" fill="#000000"/>
			<rect x="25" y="16" width="1" height="1" fill="#000000"/>
			<rect x="27" y="16" width="1" height="1" fill="#000000"/>
			<rect x="28" y="16" width="1" height="1" fill="#000000"/>
			<rect x="31" y="16" width="1" height="1" fill="#000000"/>
			<rect x="0" y="17" width="1" height="1" fill="#000000"/>
			<rect x="3" y="17" width="1" height="1" fill="#000000"/>
			<rect x="4" y="17" width="1" height="1" fill="#000000"/>
			<rect x="8" y="17" width="1" height="1" fill="#000000"/>
			<rect x="9" y="17" width="1" height="1" fill="#000000"/>
			<rect x="10" y="17" width="1" height="1" fill="#000000"/>
			<rect x="12" y="17" width="1" height="1" fill="#000000"/>
			<rect x="13" y="17" width="1" height="1" fill="#000000"/>
			<rect x="14" y="17" width="1" height="1" fill="#000000"/>
			<rect x="16" y="17" width="1" height="1" fill="#000000"/>
			<rect x="17" y="17" width="1" height="1" fill="#000000"/>
			<rect x="18" y="17" width="1" height="1" fill="#000000"/>
			<rect x="19" y="17" width="1" height="1" fill="#000000"/>
			<rect x="20" y="17" width="1" height="1" fill="#000000"/>
			<rect x="23" y="17" width="1" height="1" fill="#000000"/>
			<rect x="26" y="17" width="1" height="1" fill="#000000"/>
			<rect x="29" y="17" width="1" height="1" fill="#000000"/>
			<rect x="31" y="17" width="1" height="1" fill="#000000"/>
			<rect x="32" y="17" width="1" height="1" fill="#000000"/>
			<rect x="1" y="18" width="1" height="1" fill="#000000"/>
			<rect x="2" y="18" width="1" height="1" fill="#000000"/>
			<rect x="4" y="18" width="1" height="1" fill="#000000"/>
			<rect x="6" y="18" width="1" height="1" fill="#000000"/>
			<rect x="7" y="18" width="1" height="1" fill="#000000"/>
			<rect x="10" y="18" width="1" height="1" fill="#000000"/>
			<rect x="13" y="18" width="1" height="1" fill="#000000"/>
			<rect x="14" y="18" width="1" height="1" fill="#000000"/>
			<rect x="15" y="18" width="1" height="1" fill="#000000"/>
			<rect x="16" y="18" width="1" height="1" fill="#000000"/>
			<rect x="20" y="18" width="1" height="1" fill="#000000"/>
			<rect x="22" y="18" width="1" height="1" fill="#000000"/>
			<rect x="24" y="18" width="1" height="1" fill="#000000"/>
			<rect x="25" y="18" width="1" height="1" fill="#000000"/>
			<rect x="29" y="18" width="1" height="1" fill="#000000"/>
			<rect x="31" y="18" width="1" height="1" fill="#000000"/>
			<rect x="0" y="19" width="1" height="1" fill="#000000"/>
			<rect x="7" y="19" width="1" height="1" fill="#000000"/>
			<rect x="8" y="19" width="1" height="1" fill="#000000"/>
			<rect x="12" y="19" width="1" height="1" fill="#000000"/>
			<rect x="13" y="19" width="1" height="1" fill="#000000"/>
			<rect x="18" y="19" width="1" height="1" fill="#000000"/>
			<rect x="19" y="19" width="1" height="1" fill="#000000"/>
			<rect x="20" y="19" width="1" height="1" fill="#000000"/>
			<rect x="21" y="19" width="1" height="1" fill="#000000"/>
			<rect x="22" y="19" width="1" height="1" fill="#000000"/>
			<rect x="23" y="19" width="1" height="1" fill="#000000"/>
			<rect x="24" y="19" width="1" height="1" fill="#000000"/>
			<rect x="27" y="19" width="1" height="1" fill="#000000"/>
			<rect x="28" y="19" width="1" height="1" fill="#000000"/>
			<rect x="30" y="19" width="1" height="1" fill="#000000"/>
			<rect x="2" y="20" width="1" height="1" fill="#000000"/>
			<rect x="4" y="20" width="1" height="1" fill="#000000"/>
			<rect x="6" y="20" width="1" height="1" fill="#000000"/>
			<rect x="7" y="20" width="1" height="1" fill="#000000"/>
			<rect x="8" y="20" width="1" height="1" fill="#000000"/>
			<rect x="9" y="20" width="1" height="1" fill="#000000"/>
			<rect x="12" y="20" width="1" height="1" fill="#000000"/>
			<rect x="14" y="20" width="1" height="1" fill="#000000"/>
			<rect x="15" y="20" width="1" height="1" fill="#000000"/>
			<rect x="17" y="20" width="1" height="1" fill="#000000"/>
			<rect x="19" y="20" width="1" height="1" fill="#000000"/>
			<rect x="20" y="20" width="1" height="1" fill="#000000"/>
			<rect x="22" y="20" width="1" height="1" fill="#000000"/>
			<rect x="25" y="20" width="1" height="1" fill="#000000"/>
			<rect x="27" y="20" width="1" height="1" fill="#000000"/>
			<rect x="28" y="20" width="1" height="1" fill="#000000"/>
			<rect x="31" y="20" width="1" height="1" fill="#000000"/>
			<rect x="0" y="21" width="1" height="1" fill="#000000"/>
			<rect x="7" y="21" width="1" height="1" fill="#000000"/>
			<rect x="8" y="21" width="1" height="1" fill="#000000"/>
			<rect x="10" y="21" width="1" height="1" fill="#000000"/>
			<rect x="16" y="21" width="1" height="1" fill="#000000"/>
			<rect x="17" y="21" width="1" height="1" fill="#000000"/>
			<rect x="18" y="21" width="1" height="1" fill="#000000"/>
			<rect x="20" y="21" width="1" height="1" fill="#000000"/>
			<rect x="21" y="21" width="1" height="1" fill="#000000"/>
			<rect x="23" y="21" width="1" height="1" fill="#000000"/>
			<rect x="26" y="21" width="1" height="1" fill="#000000"/>
			<rect x="29" y="21" width="1" height="1" fill="#000000"/>
			<rect x="31" y="21" width="1" height="1" fill="#000000"/>
			<rect x="32" y="21" width="1" height="1" fill="#000000"/>
			<rect x="0" y="22" width="1" height="1" fill="#000000"/>
			<rect x="2" y="22" width="1" height="1" fill="#000000"/>
			<rect x="3" y="22" width="1" height="1" fill="#000000"/>
			<rect x="4" y="22" width="1" height="1" fill="#000000"/>
			<rect x="6" y="22" width="1" height="1" fill="#000000"/>
			<rect x="8" y="22" width="1" height="1" fill="#000000"/>
			<rect x="9" y="22" width="1" height="1" fill="#000000"/>
			<rect x="10" y="22" width="1" height="1" fill="#000000"/>
			<rect x="11" y="22" width="1" height="1" fill="#000000"/>
			<rect x="12" y="22" width="1" height="1" fill="#000000"/>
			<rect x="15" y="22" width="1" height="1" fill="#000000"/>
			<rect x="16" y="22" width="1" height="1" fill="#000000"/>
			<rect x="18" y="22" width="1" height="1" fill="#000000"/>
			<rect x="20" y="22" width="1" height="1" fill="#000000"/>
			<rect x="22" y="22" width="1" height="1" fill="#000000"/>
			<rect x="26" y="22" width="1" height="1" fill="#000000"/>
			<rect x="28" y="22" width="1" height="1" fill="#000000"/>
			<rect x="29" y="22" width="1" height="1" fill="#000000"/>
			<rect x="31" y="22" width="1" height="1" fill="#000000"/>
			<rect x="0" y="23" width="1" height="1" fill="#000000"/>
			<rect x="4" y="23" width="1" height="1" fill="#000000"/>
			<rect x="5" y="23" width="1" height="1" fill="#000000"/>
			<rect x="7" y="23" width="1" height="1" fill="#000000"/>
			<rect x="8" y="23" width="1" height="1" fill="#000000"/>
			<rect x="9" y="23" width="1" height="1" fill="#000000"/>
			<rect x="11" y="23" width="1" height="1" fill="#000000"/>
			<rect x="14" y="23" width="1" height="1" fill="#000000"/>
			<rect x="15" y="23" width="1" height="1" fill="#000000"/>
			<rect x="20" y="23" width="1" height="1" fill="#000000"/>
			<rect x="21" y="23" width="1" height="1" fill="#000000"/>
			<rect x="23" y="23" width="1" height="1" fill="#000000"/>
			<rect x="25" y="23" width="1" height="1" fill="#000000"/>
			<rect x="29" y="23" width="1" height="1" fill="#000000"/>
			<rect x="30" y="23" width="1" height="1" fill="#000000"/>
			<rect x="0" y="24" width="1" height="1" fill="#000000"/>
			<rect x="3" y="24" width="1" height="1" fill="#000000"/>
			<rect x="4" y="24" width="1" height="1" fill="#000000"/>
			<rect x="5" y="24" width="1" height="1" fill="#000000"/>
			<rect x="6" y="24" width="1" height="1" fill="#000000"/>
			<rect x="7" y="24" width="1" height="1" fill="#000000"/>
			<rect x="8" y="24" width="1" height="1" fill="#000000"/>
			<rect x="9" y="24" width="1" height="1" fill="#000000"/>
			<rect x="10" y="24" width="1" height="1" fill="#000000"/>
			<rect x="11" y="24" width="1" height="1" fill="#000000"/>
			<rect x="16" y="24" width="1" height="1" fill="#000000"/>
			<rect x="17" y="24" width="1" height="1" fill="#000000"/>
			<rect x="22" y="24" width="1" height="1" fill="#000000"/>
			<rect x="23" y="24" width="1" height="1" fill="#000000"/>
			<rect x="24" y="24" width="1" height="1" fill="#000000"/>
			<rect x="25" y="24" width="1" height="1" fill="#000000"/>
			<rect x="26" y="24" width="1" height="1" fill="#000000"/>
			<rect x="27" y="24" width="1" height="1" fill="#000000"/>
			<rect x="28" y="24" width="1" height="1" fill="#000000"/>
			<rect x="32" y="24" width="1" height="1" fill="#000000"/>
			<rect x="8" y="25" width="1" height="1" fill="#000000"/>
			<rect x="9" y="25" width="1" height="1" fill="#000000"/>
			<rect x="10" y="25" width="1" height="1" fill="#000000"/>
			<rect x="12" y="25" width="1" height="1" fill="#000000"/>
			<rect x="13" y="25" width="1" height="1" fill="#000000"/>
			<rect x="14" y="25" width="1" height="1" fill="#000000"/>
			<rect x="16" y="25" width="1" height="1" fill="#000000"/>
			<rect x="18" y="25" width="1" height="1" fill="#000000"/>
			<rect x="19" y="25" width="1" height="1" fill="#000000"/>
			<rect x="20" y="25" width="1" height="1" fill="#000000"/>
			<rect x="21" y="25" width="1" height="1" fill="#000000"/>
			<rect x="22" y="25" width="1" height="1" fill="#000000"/>
			<rect x="24" y="25" width="1" height="1" fill="#000000"/>
			<rect x="28" y="25" width="1" height="1" fill="#000000"/>
			<rect x="29" y="25" width="1" height="1" fill="#000000"/>
			<rect x="30" y="25" width="1" height="1" fill="#000000"/>
			<rect x="32" y="25" width="1" height="1" fill="#000000"/>
			<rect x="0" y="26" width="1" height="1" fill="#000000"/>
			<rect x="1" y="26" width="1" height="1" fill="#000000"/>
			<rect x="2" y="26" width="1" height="1" fill="#000000"/>
			<rect x="3" y="26" width="1" height="1" fill="#000000"/>
			<rect x="4" y="26" width="1" height="1" fill="#000000"/>
			<rect x="5" y="26" width="1" height="1" fill="#000000"/>
			<rect x="6" y="26" width="1" height="1" fill="#000000"/>
			<rect x="8" y="26" width="1" height="1" fill="#000000"/>
			<rect x="10" y="26" width="1" height="1" fill="#000000"/>
			<rect x="13" y="26" width="1" height="1" fill="#000000"/>
			<rect x="14" y="26" width="1" height="1" fill="#000000"/>
			<rect x="15" y="26" width="1" height="1" fill="#000000"/>
			<rect x="16" y="26" width="1" height="1" fill="#000000"/>
			<rect x="17" y="26" width="1" height="1" fill="#000000"/>
			<rect x="21" y="26" width="1" height="1" fill="#000000"/>
			<rect x="22" y="26" width="1" height="1" fill="#000000"/>
			<rect x="23" y="26" width="1" height="1" fill="#000000"/>
			<rect x="24" y="26" width="1" height="1" fill="#000000"/>
			<rect x="26" y="26" width="1" height="1" fill="#000000"/>
			<rect x="28" y="26" width="1" height="1" fill="#000000"/>
			<rect x="29" y="26" width="1" height="1" fill="#000000"/>
			<rect x="30" y="26" width="1" height="1" fill="#000000"/>
			<rect x="31" y="26" width="1" height="1" fill="#000000"/>
			<rect x="0" y="27" width="1" height="1" fill="#000000"/>
			<rect x="6" y="27" width="1" height="1" fill="#000000"/>
			<rect x="9" y="27" width="1" height="1" fill="#000000"/>
			<rect x="12" y="27" width="1" height="1" fill="#000000"/>
			<rect x="13" y="27" width="1" height="1" fill="#000000"/>
			<rect x="18" y="27" width="1" height="1" fill="#000000"/>
			<rect x="19" y="27" width="1" height="1" fill="#000000"/>
			<rect x="21" y="27" width="1" height="1" fill="#000000"/>
			<rect x="23" y="27" width="1" height="1" fill="#000000"/>
			<rect x="24" y="27" width="1" height="1" fill="#000000"/>
			<rect x="28" y="27" width="1" height="1" fill="#000000"/>
			<rect x="29" y="27" width="1" height="1" fill="#000000"/>
			<rect x="30" y="27" width="1" height="1" fill="#000000"/>
			<rect x="31" y="27" width="1" height="1" fill="#000000"/>
			<rect x="0" y="28" width="1" height="1" fill="#000000"/>
			<rect x="2" y="28" width="1" height="1" fill="#000000"/>
			<rect x="3" y="28" width="1" height="1" fill="#000000"/>
			<rect x="4" y="28" width="1" height="1" fill="#000000"/>
			<rect x="6" y="28" width="1" height="1" fill="#000000"/>
			<rect x="8" y="28" width="1" height="1" fill="#000000"/>
			<rect x="12" y="28" width="1" height="1" fill="#000000"/>
			<rect x="14" y="28" width="1" height="1" fill="#000000"/>
			<rect x="15" y="28" width="1" height="1" fill="#000000"/>
			<rect x="17" y="28" width="1" height="1" fill="#000000"/>
			<rect x="20" y="28" width="1" height="1" fill="#000000"/>
			<rect x="22" y="28" width="1" height="1" fill="#000000"/>
			<rect x="24" y="28" width="1" height="1" fill="#000000"/>
			<rect x="25" y="28" width="1" height="1" fill="#000000"/>
			<rect x="26" y="28" width="1" height="1" fill="#000000"/>
			<rect x="27" y="28" width="1" height="1" fill="#000000"/>
			<rect x="28" y="28" width="1" height="1" fill="#000000"/>
			<rect x="32" y="28" width="1" height="1" fill="#000000"/>
			<rect x="0" y="29" width="1" height="1" fill="#000000"/>
			<rect x="2" y="29" width="1" height="1" fill="#000000"/>
			<rect x="3" y="29" width="1" height="1" fill="#000000"/>
			<rect x="4" y="29" width="1" height="1" fill="#000000"/>
			<rect x="6" y="29" width="1" height="1" fill="#000000"/>
			<rect x="8" y="29" width="1" height="1" fill="#000000"/>
			<rect x="9" y="29" width="1" height="1" fill="#000000"/>
			<rect x="16" y="29" width="1" height="1" fill="#000000"/>
			<rect x="18" y="29" width="1" height="1" fill="#000000"/>
			<rect x="19" y="29" width="1" height="1" fill="#000000"/>
			<rect x="20" y="29" width="1" height="1" fill="#000000"/>
			<rect x="21" y="29" width="1" height="1" fill="#000000"/>
			<rect x="22" y="29" width="1" height="1" fill="#000000"/>
			<rect x="25" y="29" width="1" height="1" fill="#000000"/>
			<rect x="28" y="29" width="1" height="1" fill="#000000"/>
			<rect x="29" y="29" width="1" height="1" fill="#000000"/>
			<rect x="31" y="29" width="1" height="1" fill="#000000"/>
			<rect x="32" y="29" width="1" height="1" fill="#000000"/>
			<rect x="0" y="30" width="1" height="1" fill="#000000"/>
			<rect x="2" y="30" width="1" height="1" fill="#000000"/>
			<rect x="3" y="30" width="1" height="1" fill="#000000"/>
			<rect x="4" y="30" width="1" height="1" fill="#000000"/>
			<rect x="6" y="30" width="1" height="1" fill="#000000"/>
			<rect x="8" y="30" width="1" height="1" fill="#000000"/>
			<rect x="10" y="30" width="1" height="1" fill="#000000"/>
			<rect x="11" y="30" width="1" height="1" fill="#000000"/>
			<rect x="12" y="30" width="1" height="1" fill="#000000"/>
			<rect x="15" y="30" width="1" height="1" fill="#000000"/>
			<rect x="16" y="30" width="1" height="1" fill="#000000"/>
			<rect x="20" y="30" width="1" height="1" fill="#000000"/>
			<rect x="22" y="30" width="1" height="1" fill="#000000"/>
			<rect x="23" y="30" width="1" height="1" fill="#000000"/>
			<rect x="26" y="30" width="1" height="1" fill="#000000"/>
			<rect x="0" y="31" width="1" height="1" fill="#000000"/>
			<rect x="6" y="31" width="1" height="1" fill="#000000"/>
			<rect x="8" y="31" width="1" height="1" fill="#000000"/>
			<rect x="9" y="31" width="1" height="1" fill="#000000"/>
			<rect x="11" y="31" width="1" height="1" fill="#000000"/>
			<rect x="14" y="31" width="1" height="1" fill="#000000"/>
			<rect x="16" y="31" width="1" height="1" fill="#000000"/>
			<rect x="21" y="31" width="1" height="1" fill="#000000"/>
			<rect x="22" y="31" width="1" height="1" fill="#000000"/>
			<rect x="27" y="31" width="1" height="1" fill="#000000"/>
			<rect x="28" y="31" width="1" height="1" fill="#000000"/>
			<rect x="30" y="31" width="1" height="1" fill="#000000"/>
			<rect x="0" y="32" width="1" height="1" fill="#000000"/>
			<rect x="1" y="32" width="1" height="1" fill="#000000"/>
			<rect x="2" y="32" width="1" height="1" fill="#000000"/>
			<rect x="3" y="32" width="1" height="1" fill="#000000"/>
			<rect x="4" y="32" width="1" height="1" fill="#000000"/>
			<rect x="5" y="32" width="1" height="1" fill="#000000"/>
			<rect x="6" y="32" width="1" height="1" fill="#000000"/>
			<rect x="8" y="32" width="1" height="1" fill="#000000"/>
			<rect x="10" y="32" width="1" height="1" fill="#000000"/>
			<rect x="11" y="32" width="1" height="1" fill="#000000"/>
			<rect x="16" y="32" width="1" height="1" fill="#000000"/>
			<rect x="22" y="32" width="1" height="1" fill="#000000"/>
			<rect x="24" y="32" width="1" height="1" fill="#000000"/>
			<rect x="25" y="32" width="1" height="1" fill="#000000"/>
			<rect x="28" y="32" width="1" height="1" fill="#000000"/>
			<rect x="31" y="32" width="1" height="1" fill="#000000"/>
		</g>
	</g>
</svg>
