<?xml version="1.0" encoding="UTF-8" standalone="yes"?>
<!-- Created with qrencode 4.1.1 (https://fukuchi.org/works/qrencode/index.html) -->
<svg width="4.76cm" height="4.76cm" viewBox="0 0 45 45" preserveAspectRatio="none" version="1.1" xmlns="http://www.w3.org/2000/svg">
	<g id="QRcode">
		<rect x="0" y="0" width="45" height="45" fill="#ffffff"/>
		<g id="Pattern" transform="translate(4,4)">
			<rect x="0" y="0" width="1" height="1" fill="#000000"/>
			<rect x="1" y="0" width="1" height="1" fill="#000000"/>
			<rect x="2" y="0" width="1" height="1" fill="#000000"/>
			<rect x="3" y="0" width="1" height="1" fill="#000000"/>
			<rect x="4" y="0" width="1" height="1" fill="#000000"/>
			<rect x="5" y="0" width="1" height="1" fill="#000000"/>
			<rect x="6" y="0" width="1" height="1" fill="#000000"/>
			<rect x="8" y="0" width="1" height="1" fill="#000000"/>
			<rect x="9" y="0" width="1" height="1" fill="#000000"/>
			<rect x="10" y="0" width="1" height="1" fill="#000000"/>
			<rect x="11" y="0" width="1" height="1" fill="#000000"/>
			<rect x="13" y="0" width="1" height="1" fill="#000000"/>
			<rect x="14" y="0" width="1" height="1" fill="#000000"/>
			<rect x="15" y="0" width="1" height="1" fill="#000000"/>
			<rect x="18" y="0" width="1" height="1" fill="#000000"/>
			<rect x="20" y="0" width="1" height="1" fill="#000000"/>
			<rect x="21" y="0" width="1" height="1" fill="#000000"/>
			<rect x="22" y="0" width="1" height="1" fill="#000000"/>
			<rect x="26" y="0" width="1" height="1" fill="#000000"/>
			<rect x="30" y="0" width="1" height="1" fill="#000000"/>
			<rect x="31" y="0" width="1" height="1" fill="#000000"/>
			<rect x="32" y="0" width="1" height="1" fill="#000000"/>
			<rect x="33" y="0" width="1" height="1" fill="#000000"/>
			<rect x="34" y="0" width="1" height="1" fill="#000000"/>
			<rect x="35" y="0" width="1" height="1" fill="#000000"/>
			<rect x="36" y="0" width="1" height="1" fill="#000000"/>
			<rect x="0" y="1" width="1" height="1" fill="#000000"/>
			<rect x="6" y="1" width="1" height="1" fill="#000000"/>
			<rect x="8" y="1" width="1" height="1" fill="#000000"/>
			<rect x="11" y="1" width="1" height="1" fill="#000000"/>
			<rect x="15" y="1" width="1" height="1" fill="#000000"/>
			<rect x="18" y="1" width="1" height="1" fill="#000000"/>
			<rect x="21" y="1" width="1" height="1" fill="#000000"/>
			<rect x="22" y="1" width="1" height="1" fill="#000000"/>
			<rect x="26" y="1" width="1" height="1" fill="#000000"/>
			<rect x="28" y="1" width="1" height="1" fill="#000000"/>
			<rect x="30" y="1" width="1" height="1" fill="#000000"/>
			<rect x="36" y="1" width="1" height="1" fill="#000000"/>
			<rect x="0" y="2" width="1" height="1" fill="#000000"/>
			<rect x="2" y="2" width="1" height="1" fill="#000000"/>
			<rect x="3" y="2" width="1" height="1" fill="#000000"/>
			<rect x="4" y="2" width="1" height="1" fill="#000000"/>
			<rect x="6" y="2" width="1" height="1" fill="#000000"/>
			<rect x="9" y="2" width="1" height="1" fill="#000000"/>
			<rect x="13" y="2" width="1" height="1" fill="#000000"/>
			<rect x="17" y="2" width="1" height="1" fill="#000000"/>
			<rect x="21" y="2" width="1" height="1" fill="#000000"/>
			<rect x="25" y="2" width="1" height="1" fill="#000000"/>
			<rect x="26" y="2" width="1" height="1" fill="#000000"/>
			<rect x="27" y="2" width="1" height="1" fill="#000000"/>
			<rect x="28" y="2" width="1" height="1" fill="#000000"/>
			<rect x="30" y="2" width="1" height="1" fill="#000000"/>
			<rect x="32" y="2" width="1" height="1" fill="#000000"/>
			<rect x="33" y="2" width="1" height="1" fill="#000000"/>
			<rect x="34" y="2" width="1" height="1" fill="#000000"/>
			<rect x="36" y="2" width="1" height="1" fill="#000000"/>
			<rect x="0" y="3" width="1" height="1" fill="#000000"/>
			<rect x="2" y="3" width="1" height="1" fill="#000000"/>
			<rect x="3" y="3" width="1" height="1" fill="#000000"/>
			<rect x="4" y="3" width="1" height="1" fill="#000000"/>
			<rect x="6" y="3" width="1" height="1" fill="#000000"/>
			<rect x="11" y="3" width="1" height="1" fill="#000000"/>
			<rect x="12" y="3" width="1" height="1" fill="#000000"/>
			<rect x="15" y="3" width="1" height="1" fill="#000000"/>
			<rect x="16" y="3" width="1" height="1" fill="#000000"/>
			<rect x="17" y="3" width="1" height="1" fill="#000000"/>
			<rect x="18" y="3" width="1" height="1" fill="#000000"/>
			<rect x="19" y="3" width="1" height="1" fill="#000000"/>
			<rect x="21" y="3" width="1" height="1" fill="#000000"/>
			<rect x="23" y="3" width="1" height="1" fill="#000000"/>
			<rect x="25" y="3" width="1" height="1" fill="#000000"/>
			<rect x="30" y="3" width="1" height="1" fill="#000000"/>
			<rect x="32" y="3" width="1" height="1" fill="#000000"/>
			<rect x="33" y="3" width="1" height="1" fill="#000000"/>
			<rect x="34" y="3" width="1" height="1" fill="#000000"/>
			<rect x="36" y="3" width="1" height="1" fill="#000000"/>
			<rect x="0" y="4" width="1" height="1" fill="#000000"/>
			<rect x="2" y="4" width="1" height="1" fill="#000000"/>
			<rect x="3" y="4" width="1" height="1" fill="#000000"/>
			<rect x="4" y="4" width="1" height="1" fill="#000000"/>
			<rect x="6" y="4" width="1" height="1" fill="#000000"/>
			<rect x="8" y="4" width="1" height="1" fill="#000000"/>
			<rect x="11" y="4" width="1" height="1" fill="#000000"/>
			<rect x="12" y="4" width="1" height="1" fill="#000000"/>
			<rect x="15" y="4" width="1" height="1" fill="#000000"/>
			<rect x="16" y="4" width="1" height="1" fill="#000000"/>
			<rect x="17" y="4" width="1" height="1" fill="#000000"/>
			<rect x="18" y="4" width="1" height="1" fill="#000000"/>
			<rect x="22" y="4" width="1" height="1" fill="#000000"/>
			<rect x="26" y="4" width="1" height="1" fill="#000000"/>
			<rect x="30" y="4" width="1" height="1" fill="#000000"/>
			<rect x="32" y="4" width="1" height="1" fill="#000000"/>
			<rect x="33" y="4" width="1" height="1" fill="#000000"/>
			<rect x="34" y="4" width="1" height="1" fill="#000000"/>
			<rect x="36" y="4" width="1" height="1" fill="#000000"/>
			<rect x="0" y="5" width="1" height="1" fill="#000000"/>
			<rect x="6" y="5" width="1" height="1" fill="#000000"/>
			<rect x="8" y="5" width="1" height="1" fill="#000000"/>
			<rect x="9" y="5" width="1" height="1" fill="#000000"/>
			<rect x="10" y="5" width="1" height="1" fill="#000000"/>
			<rect x="12" y="5" width="1" height="1" fill="#000000"/>
			<rect x="13" y="5" width="1" height="1" fill="#000000"/>
			<rect x="14" y="5" width="1" height="1" fill="#000000"/>
			<rect x="16" y="5" width="1" height="1" fill="#000000"/>
			<rect x="20" y="5" width="1" height="1" fill="#000000"/>
			<rect x="22" y="5" width="1" height="1" fill="#000000"/>
			<rect x="24" y="5" width="1" height="1" fill="#000000"/>
			<rect x="25" y="5" width="1" height="1" fill="#000000"/>
			<rect x="26" y="5" width="1" height="1" fill="#000000"/>
			<rect x="28" y="5" width="1" height="1" fill="#000000"/>
			<rect x="30" y="5" width="1" height="1" fill="#000000"/>
			<rect x="36" y="5" width="1" height="1" fill="#000000"/>
			<rect x="0" y="6" width="1" height="1" fill="#000000"/>
			<rect x="1" y="6" width="1" height="1" fill="#000000"/>
			<rect x="2" y="6" width="1" height="1" fill="#000000"/>
			<rect x="3" y="6" width="1" height="1" fill="#000000"/>
			<rect x="4" y="6" width="1" height="1" fill="#000000"/>
			<rect x="5" y="6" width="1" height="1" fill="#000000"/>
			<rect x="6" y="6" width="1" height="1" fill="#000000"/>
			<rect x="8" y="6" width="1" height="1" fill="#000000"/>
			<rect x="10" y="6" width="1" height="1" fill="#000000"/>
			<rect x="12" y="6" width="1" height="1" fill="#000000"/>
			<rect x="14" y="6" width="1" height="1" fill="#000000"/>
			<rect x="16" y="6" width="1" height="1" fill="#000000"/>
			<rect x="18" y="6" width="1" height="1" fill="#000000"/>
			<rect x="20" y="6" width="1" height="1" fill="#000000"/>
			<rect x="22" y="6" width="1" height="1" fill="#000000"/>
			<rect x="24" y="6" width="1" height="1" fill="#000000"/>
			<rect x="26" y="6" width="1" height="1" fill="#000000"/>
			<rect x="28" y="6" width="1" height="1" fill="#000000"/>
			<rect x="30" y="6" width="1" height="1" fill="#000000"/>
			<rect x="31" y="6" width="1" height="1" fill="#000000"/>
			<rect x="32" y="6" width="1" height="1" fill="#000000"/>
			<rect x="33" y="6" width="1" height="1" fill="#000000"/>
			<rect x="34" y="6" width="1" height="1" fill="#000000"/>
			<rect x="35" y="6" width="1" height="1" fill="#000000"/>
			<rect x="36" y="6" width="1" height="1" fill="#000000"/>
			<rect x="8" y="7" width="1" height="1" fill="#000000"/>
			<rect x="9" y="7" width="1" height="1" fill="#000000"/>
			<rect x="13" y="7" width="1" height="1" fill="#000000"/>
			<rect x="18" y="7" width="1" height="1" fill="#000000"/>
			<rect x="20" y="7" width="1" height="1" fill="#000000"/>
			<rect x="22" y="7" width="1" height="1" fill="#000000"/>
			<rect x="26" y="7" width="1" height="1" fill="#000000"/>
			<rect x="28" y="7" width="1" height="1" fill="#000000"/>
			<rect x="0" y="8" width="1" height="1" fill="#000000"/>
			<rect x="1" y="8" width="1" height="1" fill="#000000"/>
			<rect x="2" y="8" width="1" height="1" fill="#000000"/>
			<rect x="5" y="8" width="1" height="1" fill="#000000"/>
			<rect x="6" y="8" width="1" height="1" fill="#000000"/>
			<rect x="8" y="8" width="1" height="1" fill="#000000"/>
			<rect x="9" y="8" width="1" height="1" fill="#000000"/>
			<rect x="11" y="8" width="1" height="1" fill="#000000"/>
			<rect x="12" y="8" width="1" height="1" fill="#000000"/>
			<rect x="13" y="8" width="1" height="1" fill="#000000"/>
			<rect x="15" y="8" width="1" height="1" fill="#000000"/>
			<rect x="16" y="8" width="1" height="1" fill="#000000"/>
			<rect x="19" y="8" width="1" height="1" fill="#000000"/>
			<rect x="20" y="8" width="1" height="1" fill="#000000"/>
			<rect x="24" y="8" width="1" height="1" fill="#000000"/>
			<rect x="27" y="8" width="1" height="1" fill="#000000"/>
			<rect x="29" y="8" width="1" height="1" fill="#000000"/>
			<rect x="30" y="8" width="1" height="1" fill="#000000"/>
			<rect x="31" y="8" width="1" height="1" fill="#000000"/>
			<rect x="32" y="8" width="1" height="1" fill="#000000"/>
			<rect x="35" y="8" width="1" height="1" fill="#000000"/>
			<rect x="36" y="8" width="1" height="1" fill="#000000"/>
			<rect x="2" y="9" width="1" height="1" fill="#000000"/>
			<rect x="5" y="9" width="1" height="1" fill="#000000"/>
			<rect x="8" y="9" width="1" height="1" fill="#000000"/>
			<rect x="12" y="9" width="1" height="1" fill="#000000"/>
			<rect x="16" y="9" width="1" height="1" fill="#000000"/>
			<rect x="17" y="9" width="1" height="1" fill="#000000"/>
			<rect x="19" y="9" width="1" height="1" fill="#000000"/>
			<rect x="20" y="9" width="1" height="1" fill="#000000"/>
			<rect x="22" y="9" width="1" height="1" fill="#000000"/>
			<rect x="23" y="9" width="1" height="1" fill="#000000"/>
			<rect x="24" y="9" width="1" height="1" fill="#000000"/>
			<rect x="26" y="9" width="1" height="1" fill="#000000"/>
			<rect x="27" y="9" width="1" height="1" fill="#000000"/>
			<rect x="28" y="9" width="1" height="1" fill="#000000"/>
			<rect x="30" y="9" width="1" height="1" fill="#000000"/>
			<rect x="34" y="9" width="1" height="1" fill="#000000"/>
			<rect x="35" y="9" width="1" height="1" fill="#000000"/>
			<rect x="36" y="9" width="1" height="1" fill="#000000"/>
			<rect x="1" y="10" width="1" height="1" fill="#000000"/>
			<rect x="5" y="10" width="1" height="1" fill="#000000"/>
			<rect x="6" y="10" width="1" height="1" fill="#000000"/>
			<rect x="7" y="10" width="1" height="1" fill="#000000"/>
			<rect x="8" y="10" width="1" height="1" fill="#000000"/>
			<rect x="10" y="10" width="1" height="1" fill="#000000"/>
			<rect x="12" y="10" width="1" height="1" fill="#000000"/>
			<rect x="13" y="10" width="1" height="1" fill="#000000"/>
			<rect x="14" y="10" width="1" height="1" fill="#000000"/>
			<rect x="16" y="10" width="1" height="1" fill="#000000"/>
			<rect x="19" y="10" width="1" height="1" fill="#000000"/>
			<rect x="20" y="10" width="1" height="1" fill="#000000"/>
			<rect x="22" y="10" width="1" height="1" fill="#000000"/>
			<rect x="23" y="10" width="1" height="1" fill="#000000"/>
			<rect x="25" y="10" width="1" height="1" fill="#000000"/>
			<rect x="27" y="10" width="1" height="1" fill="#000000"/>
			<rect x="28" y="10" width="1" height="1" fill="#000000"/>
			<rect x="33" y="10" width="1" height="1" fill="#000000"/>
			<rect x="35" y="10" width="1" height="1" fill="#000000"/>
			<rect x="36" y="10" width="1" height="1" fill="#000000"/>
			<rect x="0" y="11" width="1" height="1" fill="#000000"/>
			<rect x="2" y="11" width="1" height="1" fill="#000000"/>
			<rect x="7" y="11" width="1" height="1" fill="#000000"/>
			<rect x="9" y="11" width="1" height="1" fill="#000000"/>
			<rect x="10" y="11" width="1" height="1" fill="#000000"/>
			<rect x="11" y="11" width="1" height="1" fill="#000000"/>
			<rect x="12" y="11" width="1" height="1" fill="#000000"/>
			<rect x="14" y="11" width="1" height="1" fill="#000000"/>
			<rect x="15" y="11" width="1" height="1" fill="#000000"/>
			<rect x="16" y="11" width="1" height="1" fill="#000000"/>
			<rect x="22" y="11" width="1" height="1" fill="#000000"/>
			<rect x="23" y="11" width="1" height="1" fill="#000000"/>
			<rect x="27" y="11" width="1" height="1" fill="#000000"/>
			<rect x="28" y="11" width="1" height="1" fill="#000000"/>
			<rect x="29" y="11" width="1" height="1" fill="#000000"/>
			<rect x="30" y="11" width="1" height="1" fill="#000000"/>
			<rect x="32" y="11" width="1" height="1" fill="#000000"/>
			<rect x="35" y="11" width="1" height="1" fill="#000000"/>
			<rect x="36" y="11" width="1" height="1" fill="#000000"/>
			<rect x="0" y="12" width="1" height="1" fill="#000000"/>
			<rect x="1" y="12" width="1" height="1" fill="#000000"/>
			<rect x="6" y="12" width="1" height="1" fill="#000000"/>
			<rect x="9" y="12" width="1" height="1" fill="#000000"/>
			<rect x="10" y="12" width="1" height="1" fill="#000000"/>
			<rect x="13" y="12" width="1" height="1" fill="#000000"/>
			<rect x="14" y="12" width="1" height="1" fill="#000000"/>
			<rect x="19" y="12" width="1" height="1" fill="#000000"/>
			<rect x="24" y="12" width="1" height="1" fill="#000000"/>
			<rect x="28" y="12" width="1" height="1" fill="#000000"/>
			<rect x="30" y="12" width="1" height="1" fill="#000000"/>
			<rect x="31" y="12" width="1" height="1" fill="#000000"/>
			<rect x="33" y="12" width="1" height="1" fill="#000000"/>
			<rect x="35" y="12" width="1" height="1" fill="#000000"/>
			<rect x="36" y="12" width="1" height="1" fill="#000000"/>
			<rect x="0" y="13" width="1" height="1" fill="#000000"/>
			<rect x="3" y="13" width="1" height="1" fill="#000000"/>
			<rect x="7" y="13" width="1" height="1" fill="#000000"/>
			<rect x="8" y="13" width="1" height="1" fill="#000000"/>
			<rect x="13" y="13" width="1" height="1" fill="#000000"/>
			<rect x="14" y="13" width="1" height="1" fill="#000000"/>
			<rect x="19" y="13" width="1" height="1" fill="#000000"/>
			<rect x="20" y="13" width="1" height="1" fill="#000000"/>
			<rect x="21" y="13" width="1" height="1" fill="#000000"/>
			<rect x="23" y="13" width="1" height="1" fill="#000000"/>
			<rect x="24" y="13" width="1" height="1" fill="#000000"/>
			<rect x="27" y="13" width="1" height="1" fill="#000000"/>
			<rect x="28" y="13" width="1" height="1" fill="#000000"/>
			<rect x="29" y="13" width="1" height="1" fill="#000000"/>
			<rect x="30" y="13" width="1" height="1" fill="#000000"/>
			<rect x="31" y="13" width="1" height="1" fill="#000000"/>
			<rect x="33" y="13" width="1" height="1" fill="#000000"/>
			<rect x="34" y="13" width="1" height="1" fill="#000000"/>
			<rect x="35" y="13" width="1" height="1" fill="#000000"/>
			<rect x="36" y="13" width="1" height="1" fill="#000000"/>
			<rect x="0" y="14" width="1" height="1" fill="#000000"/>
			<rect x="4" y="14" width="1" height="1" fill="#000000"/>
			<rect x="6" y="14" width="1" height="1" fill="#000000"/>
			<rect x="7" y="14" width="1" height="1" fill="#000000"/>
			<rect x="11" y="14" width="1" height="1" fill="#000000"/>
			<rect x="15" y="14" width="1" height="1" fill="#000000"/>
			<rect x="17" y="14" width="1" height="1" fill="#000000"/>
			<rect x="19" y="14" width="1" height="1" fill="#000000"/>
			<rect x="23" y="14" width="1" height="1" fill="#000000"/>
			<rect x="25" y="14" width="1" height="1" fill="#000000"/>
			<rect x="27" y="14" width="1" height="1" fill="#000000"/>
			<rect x="29" y="14" width="1" height="1" fill="#000000"/>
			<rect x="30" y="14" width="1" height="1" fill="#000000"/>
			<rect x="32" y="14" width="1" height="1" fill="#000000"/>
			<rect x="36" y="14" width="1" height="1" fill="#000000"/>
			<rect x="2" y="15" width="1" height="1" fill="#000000"/>
			<rect x="3" y="15" width="1" height="1" fill="#000000"/>
			<rect x="5" y="15" width="1" height="1" fill="#000000"/>
			<rect x="9" y="15" width="1" height="1" fill="#000000"/>
			<rect x="10" y="15" width="1" height="1" fill="#000000"/>
			<rect x="13" y="15" width="1" height="1" fill="#000000"/>
			<rect x="19" y="15" width="1" height="1" fill="#000000"/>
			<rect x="20" y="15" width="1" height="1" fill="#000000"/>
			<rect x="22" y="15" width="1" height="1" fill="#000000"/>
			<rect x="26" y="15" width="1" height="1" fill="#000000"/>
			<rect x="29" y="15" width="1" height="1" fill="#000000"/>
			<rect x="30" y="15" width="1" height="1" fill="#000000"/>
			<rect x="31" y="15" width="1" height="1" fill="#000000"/>
			<rect x="0" y="16" width="1" height="1" fill="#000000"/>
			<rect x="1" y="16" width="1" height="1" fill="#000000"/>
			<rect x="2" y="16" width="1" height="1" fill="#000000"/>
			<rect x="4" y="16" width="1" height="1" fill="#000000"/>
			<rect x="5" y="16" width="1" height="1" fill="#000000"/>
			<rect x="6" y="16" width="1" height="1" fill="#000000"/>
			<rect x="7" y="16" width="1" height="1" fill="#000000"/>
			<rect x="11" y="16" width="1" height="1" fill="#000000"/>
			<rect x="12" y="16" width="1" height="1" fill="#000000"/>
			<rect x="13" y="16" width="1" height="1" fill="#000000"/>
			<rect x="15" y="16" width="1" height="1" fill="#000000"/>
			<rect x="16" y="16" width="1" height="1" fill="#000000"/>
			<rect x="18" y="16" width="1" height="1" fill="#000000"/>
			<rect x="20" y="16" width="1" height="1" fill="#000000"/>
			<rect x="23" y="16" width="1" height="1" fill="#000000"/>
			<rect x="24" y="16" width="1" height="1" fill="#000000"/>
			<rect x="27" y="16" width="1" height="1" fill="#000000"/>
			<rect x="28" y="16" width="1" height="1" fill="#000000"/>
			<rect x="30" y="16" width="1" height="1" fill="#000000"/>
			<rect x="33" y="16" width="1" height="1" fill="#000000"/>
			<rect x="35" y="16" width="1" height="1" fill="#000000"/>
			<rect x="36" y="16" width="1" height="1" fill="#000000"/>
			<rect x="0" y="17" width="1" height="1" fill="#000000"/>
			<rect x="2" y="17" width="1" height="1" fill="#000000"/>
			<rect x="4" y="17" width="1" height="1" fill="#000000"/>
			<rect x="7" y="17" width="1" height="1" fill="#000000"/>
			<rect x="8" y="17" width="1" height="1" fill="#000000"/>
			<rect x="10" y="17" width="1" height="1" fill="#000000"/>
			<rect x="12" y="17" width="1" height="1" fill="#000000"/>
			<rect x="16" y="17" width="1" height="1" fill="#000000"/>
			<rect x="17" y="17" width="1" height="1" fill="#000000"/>
			<rect x="19" y="17" width="1" height="1" fill="#000000"/>
			<rect x="20" y="17" width="1" height="1" fill="#000000"/>
			<rect x="22" y="17" width="1" height="1" fill="#000000"/>
			<rect x="23" y="17" width="1" height="1" fill="#000000"/>
			<rect x="24" y="17" width="1" height="1" fill="#000000"/>
			<rect x="27" y="17" width="1" height="1" fill="#000000"/>
			<rect x="28" y="17" width="1" height="1" fill="#000000"/>
			<rect x="30" y="17" width="1" height="1" fill="#000000"/>
			<rect x="31" y="17" width="1" height="1" fill="#000000"/>
			<rect x="33" y="17" width="1" height="1" fill="#000000"/>
			<rect x="34" y="17" width="1" height="1" fill="#000000"/>
			<rect x="35" y="17" width="1" height="1" fill="#000000"/>
			<rect x="36" y="17" width="1" height="1" fill="#000000"/>
			<rect x="2" y="18" width="1" height="1" fill="#000000"/>
			<rect x="6" y="18" width="1" height="1" fill="#000000"/>
			<rect x="9" y="18" width="1" height="1" fill="#000000"/>
			<rect x="12" y="18" width="1" height="1" fill="#000000"/>
			<rect x="13" y="18" width="1" height="1" fill="#000000"/>
			<rect x="14" y="18" width="1" height="1" fill="#000000"/>
			<rect x="16" y="18" width="1" height="1" fill="#000000"/>
			<rect x="17" y="18" width="1" height="1" fill="#000000"/>
			<rect x="19" y="18" width="1" height="1" fill="#000000"/>
			<rect x="21" y="18" width="1" height="1" fill="#000000"/>
			<rect x="23" y="18" width="1" height="1" fill="#000000"/>
			<rect x="26" y="18" width="1" height="1" fill="#000000"/>
			<rect x="27" y="18" width="1" height="1" fill="#000000"/>
			<rect x="30" y="18" width="1" height="1" fill="#000000"/>
			<rect x="31" y="18" width="1" height="1" fill="#000000"/>
			<rect x="36" y="18" width="1" height="1" fill="#000000"/>
			<rect x="0" y="19" width="1" height="1" fill="#000000"/>
			<rect x="1" y="19" width="1" height="1" fill="#000000"/>
			<rect x="7" y="19" width="1" height="1" fill="#000000"/>
			<rect x="8" y="19" width="1" height="1" fill="#000000"/>
			<rect x="9" y="19" width="1" height="1" fill="#000000"/>
			<rect x="11" y="19" width="1" height="1" fill="#000000"/>
			<rect x="12" y="19" width="1" height="1" fill="#000000"/>
			<rect x="14" y="19" width="1" height="1" fill="#000000"/>
			<rect x="15" y="19" width="1" height="1" fill="#000000"/>
			<rect x="16" y="19" width="1" height="1" fill="#000000"/>
			<rect x="18" y="19" width="1" height="1" fill="#000000"/>
			<rect x="20" y="19" width="1" height="1" fill="#000000"/>
			<rect x="22" y="19" width="1" height="1" fill="#000000"/>
			<rect x="24" y="19" width="1" height="1" fill="#000000"/>
			<rect x="26" y="19" width="1" height="1" fill="#000000"/>
			<rect x="28" y="19" width="1" height="1" fill="#000000"/>
			<rect x="29" y="19" width="1" height="1" fill="#000000"/>
			<rect x="31" y="19" width="1" height="1" fill="#000000"/>
			<rect x="32" y="19" width="1" height="1" fill="#000000"/>
			<rect x="33" y="19" width="1" height="1" fill="#000000"/>
			<rect x="3" y="20" width="1" height="1" fill="#000000"/>
			<rect x="6" y="20" width="1" height="1" fill="#000000"/>
			<rect x="8" y="20" width="1" height="1" fill="#000000"/>
			<rect x="10" y="20" width="1" height="1" fill="#000000"/>
			<rect x="13" y="20" width="1" height="1" fill="#000000"/>
			<rect x="14" y="20" width="1" height="1" fill="#000000"/>
			<rect x="16" y="20" width="1" height="1" fill="#000000"/>
			<rect x="20" y="20" width="1" height="1" fill="#000000"/>
			<rect x="24" y="20" width="1" height="1" fill="#000000"/>
			<rect x="28" y="20" width="1" height="1" fill="#000000"/>
			<rect x="30" y="20" width="1" height="1" fill="#000000"/>
			<rect x="31" y="20" width="1" height="1" fill="#000000"/>
			<rect x="36" y="20" width="1" height="1" fill="#000000"/>
			<rect x="0" y="21" width="1" height="1" fill="#000000"/>
			<rect x="4" y="21" width="1" height="1" fill="#000000"/>
			<rect x="8" y="21" width="1" height="1" fill="#000000"/>
			<rect x="9" y="21" width="1" height="1" fill="#000000"/>
			<rect x="13" y="21" width="1" height="1" fill="#000000"/>
			<rect x="14" y="21" width="1" height="1" fill="#000000"/>
			<rect x="18" y="21" width="1" height="1" fill="#000000"/>
			<rect x="19" y="21" width="1" height="1" fill="#000000"/>
			<rect x="22" y="21" width="1" height="1" fill="#000000"/>
			<rect x="23" y="21" width="1" height="1" fill="#000000"/>
			<rect x="24" y="21" width="1" height="1" fill="#000000"/>
			<rect x="25" y="21" width="1" height="1" fill="#000000"/>
			<rect x="27" y="21" width="1" height="1" fill="#000000"/>
			<rect x="28" y="21" width="1" height="1" fill="#000000"/>
			<rect x="29" y="21" width="1" height="1" fill="#000000"/>
			<rect x="30" y="21" width="1" height="1" fill="#000000"/>
			<rect x="33" y="21" width="1" height="1" fill="#000000"/>
			<rect x="35" y="21" width="1" height="1" fill="#000000"/>
			<rect x="36" y="21" width="1" height="1" fill="#000000"/>
			<rect x="0" y="22" width="1" height="1" fill="#000000"/>
			<rect x="1" y="22" width="1" height="1" fill="#000000"/>
			<rect x="3" y="22" width="1" height="1" fill="#000000"/>
			<rect x="4" y="22" width="1" height="1" fill="#000000"/>
			<rect x="6" y="22" width="1" height="1" fill="#000000"/>
			<rect x="7" y="22" width="1" height="1" fill="#000000"/>
			<rect x="8" y="22" width="1" height="1" fill="#000000"/>
			<rect x="9" y="22" width="1" height="1" fill="#000000"/>
			<rect x="11" y="22" width="1" height="1" fill="#000000"/>
			<rect x="15" y="22" width="1" height="1" fill="#000000"/>
			<rect x="18" y="22" width="1" height="1" fill="#000000"/>
			<rect x="19" y="22" width="1" height="1" fill="#000000"/>
			<rect x="22" y="22" width="1" height="1" fill="#000000"/>
			<rect x="23" y="22" width="1" height="1" fill="#000000"/>
			<rect x="25" y="22" width="1" height="1" fill="#000000"/>
			<rect x="26" y="22" width="1" height="1" fill="#000000"/>
			<rect x="27" y="22" width="1" height="1" fill="#000000"/>
			<rect x="29" y="22" width="1" height="1" fill="#000000"/>
			<rect x="30" y="22" width="1" height="1" fill="#000000"/>
			<rect x="31" y="22" width="1" height="1" fill="#000000"/>
			<rect x="36" y="22" width="1" height="1" fill="#000000"/>
			<rect x="0" y="23" width="1" height="1" fill="#000000"/>
			<rect x="2" y="23" width="1" height="1" fill="#000000"/>
			<rect x="4" y="23" width="1" height="1" fill="#000000"/>
			<rect x="5" y="23" width="1" height="1" fill="#000000"/>
			<rect x="7" y="23" width="1" height="1" fill="#000000"/>
			<rect x="9" y="23" width="1" height="1" fill="#000000"/>
			<rect x="13" y="23" width="1" height="1" fill="#000000"/>
			<rect x="16" y="23" width="1" height="1" fill="#000000"/>
			<rect x="20" y="23" width="1" height="1" fill="#000000"/>
			<rect x="23" y="23" width="1" height="1" fill="#000000"/>
			<rect x="24" y="23" width="1" height="1" fill="#000000"/>
			<rect x="28" y="23" width="1" height="1" fill="#000000"/>
			<rect x="30" y="23" width="1" height="1" fill="#000000"/>
			<rect x="31" y="23" width="1" height="1" fill="#000000"/>
			<rect x="33" y="23" width="1" height="1" fill="#000000"/>
			<rect x="1" y="24" width="1" height="1" fill="#000000"/>
			<rect x="3" y="24" width="1" height="1" fill="#000000"/>
			<rect x="4" y="24" width="1" height="1" fill="#000000"/>
			<rect x="5" y="24" width="1" height="1" fill="#000000"/>
			<rect x="6" y="24" width="1" height="1" fill="#000000"/>
			<rect x="10" y="24" width="1" height="1" fill="#000000"/>
			<rect x="11" y="24" width="1" height="1" fill="#000000"/>
			<rect x="12" y="24" width="1" height="1" fill="#000000"/>
			<rect x="13" y="24" width="1" height="1" fill="#000000"/>
			<rect x="15" y="24" width="1" height="1" fill="#000000"/>
			<rect x="16" y="24" width="1" height="1" fill="#000000"/>
			<rect x="19" y="24" width="1" height="1" fill="#000000"/>
			<rect x="20" y="24" width="1" height="1" fill="#000000"/>
			<rect x="24" y="24" width="1" height="1" fill="#000000"/>
			<rect x="28" y="24" width="1" height="1" fill="#000000"/>
			<rect x="30" y="24" width="1" height="1" fill="#000000"/>
			<rect x="36" y="24" width="1" height="1" fill="#000000"/>
			<rect x="1" y="25" width="1" height="1" fill="#000000"/>
			<rect x="4" y="25" width="1" height="1" fill="#000000"/>
			<rect x="5" y="25" width="1" height="1" fill="#000000"/>
			<rect x="7" y="25" width="1" height="1" fill="#000000"/>
			<rect x="9" y="25" width="1" height="1" fill="#000000"/>
			<rect x="10" y="25" width="1" height="1" fill="#000000"/>
			<rect x="12" y="25" width="1" height="1" fill="#000000"/>
			<rect x="15" y="25" width="1" height="1" fill="#000000"/>
			<rect x="16" y="25" width="1" height="1" fill="#000000"/>
			<rect x="19" y="25" width="1" height="1" fill="#000000"/>
			<rect x="20" y="25" width="1" height="1" fill="#000000"/>
			<rect x="23" y="25" width="1" height="1" fill="#000000"/>
			<rect x="25" y="25" width="1" height="1" fill="#000000"/>
			<rect x="27" y="25" width="1" height="1" fill="#000000"/>
			<rect x="29" y="25" width="1" height="1" fill="#000000"/>
			<rect x="30" y="25" width="1" height="1" fill="#000000"/>
			<rect x="31" y="25" width="1" height="1" fill="#000000"/>
			<rect x="33" y="25" width="1" height="1" fill="#000000"/>
			<rect x="35" y="25" width="1" height="1" fill="#000000"/>
			<rect x="36" y="25" width="1" height="1" fill="#000000"/>
			<rect x="0" y="26" width="1" height="1" fill="#000000"/>
			<rect x="1" y="26" width="1" height="1" fill="#000000"/>
			<rect x="2" y="26" width="1" height="1" fill="#000000"/>
			<rect x="3" y="26" width="1" height="1" fill="#000000"/>
			<rect x="4" y="26" width="1" height="1" fill="#000000"/>
			<rect x="6" y="26" width="1" height="1" fill="#000000"/>
			<rect x="9" y="26" width="1" height="1" fill="#000000"/>
			<rect x="10" y="26" width="1" height="1" fill="#000000"/>
			<rect x="12" y="26" width="1" height="1" fill="#000000"/>
			<rect x="13" y="26" width="1" height="1" fill="#000000"/>
			<rect x="14" y="26" width="1" height="1" fill="#000000"/>
			<rect x="15" y="26" width="1" height="1" fill="#000000"/>
			<rect x="16" y="26" width="1" height="1" fill="#000000"/>
			<rect x="17" y="26" width="1" height="1" fill="#000000"/>
			<rect x="19" y="26" width="1" height="1" fill="#000000"/>
			<rect x="20" y="26" width="1" height="1" fill="#000000"/>
			<rect x="22" y="26" width="1" height="1" fill="#000000"/>
			<rect x="23" y="26" width="1" height="1" fill="#000000"/>
			<rect x="27" y="26" width="1" height="1" fill="#000000"/>
			<rect x="30" y="26" width="1" height="1" fill="#000000"/>
			<rect x="36" y="26" width="1" height="1" fill="#000000"/>
			<rect x="2" y="27" width="1" height="1" fill="#000000"/>
			<rect x="5" y="27" width="1" height="1" fill="#000000"/>
			<rect x="7" y="27" width="1" height="1" fill="#000000"/>
			<rect x="8" y="27" width="1" height="1" fill="#000000"/>
			<rect x="9" y="27" width="1" height="1" fill="#000000"/>
			<rect x="10" y="27" width="1" height="1" fill="#000000"/>
			<rect x="11" y="27" width="1" height="1" fill="#000000"/>
			<rect x="12" y="27" width="1" height="1" fill="#000000"/>
			<rect x="14" y="27" width="1" height="1" fill="#000000"/>
			<rect x="16" y="27" width="1" height="1" fill="#000000"/>
			<rect x="18" y="27" width="1" height="1" fill="#000000"/>
			<rect x="20" y="27" width="1" height="1" fill="#000000"/>
			<rect x="22" y="27" width="1" height="1" fill="#000000"/>
			<rect x="28" y="27" width="1" height="1" fill="#000000"/>
			<rect x="30" y="27" width="1" height="1" fill="#000000"/>
			<rect x="31" y="27" width="1" height="1" fill="#000000"/>
			<rect x="32" y="27" width="1" height="1" fill="#000000"/>
			<rect x="33" y="27" width="1" height="1" fill="#000000"/>
			<rect x="0" y="28" width="1" height="1" fill="#000000"/>
			<rect x="1" y="28" width="1" height="1" fill="#000000"/>
			<rect x="6" y="28" width="1" height="1" fill="#000000"/>
			<rect x="7" y="28" width="1" height="1" fill="#000000"/>
			<rect x="9" y="28" width="1" height="1" fill="#000000"/>
			<rect x="13" y="28" width="1" height="1" fill="#000000"/>
			<rect x="14" y="28" width="1" height="1" fill="#000000"/>
			<rect x="16" y="28" width="1" height="1" fill="#000000"/>
			<rect x="19" y="28" width="1" height="1" fill="#000000"/>
			<rect x="20" y="28" width="1" height="1" fill="#000000"/>
			<rect x="27" y="28" width="1" height="1" fill="#000000"/>
			<rect x="28" y="28" width="1" height="1" fill="#000000"/>
			<rect x="29" y="28" width="1" height="1" fill="#000000"/>
			<rect x="30" y="28" width="1" height="1" fill="#000000"/>
			<rect x="31" y="28" width="1" height="1" fill="#000000"/>
			<rect x="32" y="28" width="1" height="1" fill="#000000"/>
			<rect x="35" y="28" width="1" height="1" fill="#000000"/>
			<rect x="8" y="29" width="1" height="1" fill="#000000"/>
			<rect x="9" y="29" width="1" height="1" fill="#000000"/>
			<rect x="13" y="29" width="1" height="1" fill="#000000"/>
			<rect x="14" y="29" width="1" height="1" fill="#000000"/>
			<rect x="15" y="29" width="1" height="1" fill="#000000"/>
			<rect x="16" y="29" width="1" height="1" fill="#000000"/>
			<rect x="18" y="29" width="1" height="1" fill="#000000"/>
			<rect x="19" y="29" width="1" height="1" fill="#000000"/>
			<rect x="20" y="29" width="1" height="1" fill="#000000"/>
			<rect x="23" y="29" width="1" height="1" fill="#000000"/>
			<rect x="24" y="29" width="1" height="1" fill="#000000"/>
			<rect x="25" y="29" width="1" height="1" fill="#000000"/>
			<rect x="28" y="29" width="1" height="1" fill="#000000"/>
			<rect x="32" y="29" width="1" height="1" fill="#000000"/>
			<rect x="33" y="29" width="1" height="1" fill="#000000"/>
			<rect x="36" y="29" width="1" height="1" fill="#000000"/>
			<rect x="0" y="30" width="1" height="1" fill="#000000"/>
			<rect x="1" y="30" width="1" height="1" fill="#000000"/>
			<rect x="2" y="30" width="1" height="1" fill="#000000"/>
			<rect x="3" y="30" width="1" height="1" fill="#000000"/>
			<rect x="4" y="30" width="1" height="1" fill="#000000"/>
			<rect x="5" y="30" width="1" height="1" fill="#000000"/>
			<rect x="6" y="30" width="1" height="1" fill="#000000"/>
			<rect x="10" y="30" width="1" height="1" fill="#000000"/>
			<rect x="11" y="30" width="1" height="1" fill="#000000"/>
			<rect x="15" y="30" width="1" height="1" fill="#000000"/>
			<rect x="16" y="30" width="1" height="1" fill="#000000"/>
			<rect x="17" y="30" width="1" height="1" fill="#000000"/>
			<rect x="19" y="30" width="1" height="1" fill="#000000"/>
			<rect x="21" y="30" width="1" height="1" fill="#000000"/>
			<rect x="23" y="30" width="1" height="1" fill="#000000"/>
			<rect x="28" y="30" width="1" height="1" fill="#000000"/>
			<rect x="30" y="30" width="1" height="1" fill="#000000"/>
			<rect x="32" y="30" width="1" height="1" fill="#000000"/>
			<rect x="36" y="30" width="1" height="1" fill="#000000"/>
			<rect x="0" y="31" width="1" height="1" fill="#000000"/>
			<rect x="6" y="31" width="1" height="1" fill="#000000"/>
			<rect x="8" y="31" width="1" height="1" fill="#000000"/>
			<rect x="10" y="31" width="1" height="1" fill="#000000"/>
			<rect x="13" y="31" width="1" height="1" fill="#000000"/>
			<rect x="15" y="31" width="1" height="1" fill="#000000"/>
			<rect x="18" y="31" width="1" height="1" fill="#000000"/>
			<rect x="19" y="31" width="1" height="1" fill="#000000"/>
			<rect x="20" y="31" width="1" height="1" fill="#000000"/>
			<rect x="22" y="31" width="1" height="1" fill="#000000"/>
			<rect x="23" y="31" width="1" height="1" fill="#000000"/>
			<rect x="24" y="31" width="1" height="1" fill="#000000"/>
			<rect x="26" y="31" width="1" height="1" fill="#000000"/>
			<rect x="27" y="31" width="1" height="1" fill="#000000"/>
			<rect x="28" y="31" width="1" height="1" fill="#000000"/>
			<rect x="32" y="31" width="1" height="1" fill="#000000"/>
			<rect x="35" y="31" width="1" height="1" fill="#000000"/>
			<rect x="0" y="32" width="1" height="1" fill="#000000"/>
			<rect x="2" y="32" width="1" height="1" fill="#000000"/>
			<rect x="3" y="32" width="1" height="1" fill="#000000"/>
			<rect x="4" y="32" width="1" height="1" fill="#000000"/>
			<rect x="6" y="32" width="1" height="1" fill="#000000"/>
			<rect x="9" y="32" width="1" height="1" fill="#000000"/>
			<rect x="10" y="32" width="1" height="1" fill="#000000"/>
			<rect x="11" y="32" width="1" height="1" fill="#000000"/>
			<rect x="12" y="32" width="1" height="1" fill="#000000"/>
			<rect x="13" y="32" width="1" height="1" fill="#000000"/>
			<rect x="15" y="32" width="1" height="1" fill="#000000"/>
			<rect x="16" y="32" width="1" height="1" fill="#000000"/>
			<rect x="20" y="32" width="1" height="1" fill="#000000"/>
			<rect x="22" y="32" width="1" height="1" fill="#000000"/>
			<rect x="23" y="32" width="1" height="1" fill="#000000"/>
			<rect x="24" y="32" width="1" height="1" fill="#000000"/>
			<rect x="27" y="32" width="1" height="1" fill="#000000"/>
			<rect x="28" y="32" width="1" height="1" fill="#000000"/>
			<rect x="29" y="32" width="1" height="1" fill="#000000"/>
			<rect x="30" y="32" width="1" height="1" fill="#000000"/>
			<rect x="31" y="32" width="1" height="1" fill="#000000"/>
			<rect x="32" y="32" width="1" height="1" fill="#000000"/>
			<rect x="33" y="32" width="1" height="1" fill="#000000"/>
			<rect x="35" y="32" width="1" height="1" fill="#000000"/>
			<rect x="36" y="32" width="1" height="1" fill="#000000"/>
			<rect x="0" y="33" width="1" height="1" fill="#000000"/>
			<rect x="2" y="33" width="1" height="1" fill="#000000"/>
			<rect x="3" y="33" width="1" height="1" fill="#000000"/>
			<rect x="4" y="33" width="1" height="1" fill="#000000"/>
			<rect x="6" y="33" width="1" height="1" fill="#000000"/>
			<rect x="12" y="33" width="1" height="1" fill="#000000"/>
			<rect x="15" y="33" width="1" height="1" fill="#000000"/>
			<rect x="16" y="33" width="1" height="1" fill="#000000"/>
			<rect x="18" y="33" width="1" height="1" fill="#000000"/>
			<rect x="19" y="33" width="1" height="1" fill="#000000"/>
			<rect x="20" y="33" width="1" height="1" fill="#000000"/>
			<rect x="21" y="33" width="1" height="1" fill="#000000"/>
			<rect x="23" y="33" width="1" height="1" fill="#000000"/>
			<rect x="24" y="33" width="1" height="1" fill="#000000"/>
			<rect x="25" y="33" width="1" height="1" fill="#000000"/>
			<rect x="27" y="33" width="1" height="1" fill="#000000"/>
			<rect x="28" y="33" width="1" height="1" fill="#000000"/>
			<rect x="29" y="33" width="1" height="1" fill="#000000"/>
			<rect x="32" y="33" width="1" height="1" fill="#000000"/>
			<rect x="33" y="33" width="1" height="1" fill="#000000"/>
			<rect x="34" y="33" width="1" height="1" fill="#000000"/>
			<rect x="35" y="33" width="1" height="1" fill="#000000"/>
			<rect x="0" y="34" width="1" height="1" fill="#000000"/>
			<rect x="2" y="34" width="1" height="1" fill="#000000"/>
			<rect x="3" y="34" width="1" height="1" fill="#000000"/>
			<rect x="4" y="34" width="1" height="1" fill="#000000"/>
			<rect x="6" y="34" width="1" height="1" fill="#000000"/>
			<rect x="8" y="34" width="1" height="1" fill="#000000"/>
			<rect x="10" y="34" width="1" height="1" fill="#000000"/>
			<rect x="12" y="34" width="1" height="1" fill="#000000"/>
			<rect x="13" y="34" width="1" height="1" fill="#000000"/>
			<rect x="14" y="34" width="1" height="1" fill="#000000"/>
			<rect x="15" y="34" width="1" height="1" fill="#000000"/>
			<rect x="18" y="34" width="1" height="1" fill="#000000"/>
			<rect x="19" y="34" width="1" height="1" fill="#000000"/>
			<rect x="21" y="34" width="1" height="1" fill="#000000"/>
			<rect x="23" y="34" width="1" height="1" fill="#000000"/>
			<rect x="25" y="34" width="1" height="1" fill="#000000"/>
			<rect x="27" y="34" width="1" height="1" fill="#000000"/>
			<rect x="28" y="34" width="1" height="1" fill="#000000"/>
			<rect x="29" y="34" width="1" height="1" fill="#000000"/>
			<rect x="32" y="34" width="1" height="1" fill="#000000"/>
			<rect x="33" y="34" width="1" height="1" fill="#000000"/>
			<rect x="36" y="34" width="1" height="1" fill="#000000"/>
			<rect x="0" y="35" width="1" height="1" fill="#000000"/>
			<rect x="6" y="35" width="1" height="1" fill="#000000"/>
			<rect x="8" y="35" width="1" height="1" fill="#000000"/>
			<rect x="9" y="35" width="1" height="1" fill="#000000"/>
			<rect x="11" y="35" width="1" height="1" fill="#000000"/>
			<rect x="12" y="35" width="1" height="1" fill="#000000"/>
			<rect x="14" y="35" width="1" height="1" fill="#000000"/>
			<rect x="18" y="35" width="1" height="1" fill="#000000"/>
			<rect x="19" y="35" width="1" height="1" fill="#000000"/>
			<rect x="22" y="35" width="1" height="1" fill="#000000"/>
			<rect x="23" y="35" width="1" height="1" fill="#000000"/>
			<rect x="24" y="35" width="1" height="1" fill="#000000"/>
			<rect x="28" y="35" width="1" height="1" fill="#000000"/>
			<rect x="30" y="35" width="1" height="1" fill="#000000"/>
			<rect x="31" y="35" width="1" height="1" fill="#000000"/>
			<rect x="32" y="35" width="1" height="1" fill="#000000"/>
			<rect x="33" y="35" width="1" height="1" fill="#000000"/>
			<rect x="0" y="36" width="1" height="1" fill="#000000"/>
			<rect x="1" y="36" width="1" height="1" fill="#000000"/>
			<rect x="2" y="36" width="1" height="1" fill="#000000"/>
			<rect x="3" y="36" width="1" height="1" fill="#000000"/>
			<rect x="4" y="36" width="1" height="1" fill="#000000"/>
			<rect x="5" y="36" width="1" height="1" fill="#000000"/>
			<rect x="6" y="36" width="1" height="1" fill="#000000"/>
			<rect x="8" y="36" width="1" height="1" fill="#000000"/>
			<rect x="9" y="36" width="1" height="1" fill="#000000"/>
			<rect x="10" y="36" width="1" height="1" fill="#000000"/>
			<rect x="13" y="36" width="1" height="1" fill="#000000"/>
			<rect x="14" y="36" width="1" height="1" fill="#000000"/>
			<rect x="15" y="36" width="1" height="1" fill="#000000"/>
			<rect x="16" y="36" width="1" height="1" fill="#000000"/>
			<rect x="19" y="36" width="1" height="1" fill="#000000"/>
			<rect x="20" y="36" width="1" height="1" fill="#000000"/>
			<rect x="24" y="36" width="1" height="1" fill="#000000"/>
			<rect x="28" y="36" width="1" height="1" fill="#000000"/>
			<rect x="30" y="36" width="1" height="1" fill="#000000"/>
			<rect x="32" y="36" width="1" height="1" fill="#000000"/>
			<rect x="33" y="36" width="1" height="1" fill="#000000"/>
			<rect x="36" y="36" width="1" height="1" fill="#000000"/>
		</g>
	</g>
</svg>
